<?xml version="1.0" encoding="UTF-8"?><svg id="Layer_4" xmlns="http://www.w3.org/2000/svg" viewBox="0 0 900.69 127.7"><defs><style>.cls-1{fill:#fff;stroke-width:0px;}</style></defs><path class="cls-1" d="M28.38,110.67l-16.55-10.91,10.25-15.55,1.95,1.29-8.24,12.5,5.12,3.38,7.13-10.82,1.95,1.29-7.13,10.82,7.52,4.96-2.01,3.05Z"/><path class="cls-1" d="M29.69,80.21l-2.05-1.9,2.3-2.49,2.05,1.9-2.31,2.49ZM42.17,91.78l-10.53-9.76,2.3-2.49,10.53,9.76-2.3,2.49Z"/><path class="cls-1" d="M48.42,85.02l-9.22-11.01,2.34-1.96,1.31,1.56c.11-2.15,1.23-4.12,3.36-5.9.92-.77,1.87-1.37,2.85-1.78.97-.41,1.82-.58,2.53-.52.71.07,1.36.3,1.96.7.39.27.94.83,1.66,1.69l5.67,6.77-2.6,2.18-5.61-6.7c-.64-.76-1.21-1.24-1.73-1.45-.52-.21-1.13-.21-1.83,0-.7.21-1.4.6-2.09,1.18-1.11.93-1.85,1.98-2.23,3.16-.38,1.18.02,2.47,1.2,3.88l5.04,6.01-2.6,2.18Z"/><path class="cls-1" d="M76.62,64.37l-.96-1.54c-.32,1.88-1.53,3.47-3.62,4.77-1.35.84-2.77,1.35-4.23,1.52s-2.81-.03-4.04-.6c-1.22-.57-2.22-1.48-3-2.73-.76-1.22-1.16-2.5-1.21-3.84-.05-1.34.32-2.63,1.13-3.86s1.9-2.28,3.3-3.15c1.02-.64,2.03-1.05,3.02-1.24.99-.19,1.89-.19,2.7,0l-3.76-6.04,2.86-1.78,10.47,16.83-2.67,1.66ZM63.74,63.95c.97,1.56,2.16,2.44,3.55,2.64,1.4.2,2.72-.08,3.97-.86,1.26-.78,2.1-1.82,2.52-3.1.42-1.29.16-2.69-.78-4.2-1.04-1.67-2.25-2.61-3.63-2.84-1.38-.22-2.73.07-4.04.89-1.28.8-2.11,1.84-2.51,3.12-.39,1.29-.08,2.73.92,4.35Z"/><path class="cls-1" d="M97.17,59.87l-1.23-1.96c.74-.15,1.36-.34,1.87-.55.69-.29,1.21-.61,1.56-.95.35-.34.59-.72.73-1.13.1-.31.19-1,.25-2.07,0-.15.02-.37.05-.67l-12.58-10.32,3.37-1.42,7.06,6.05c.91.76,1.78,1.6,2.63,2.5-.08-1.18-.07-2.37.02-3.56l.7-9.37,3.13-1.31-1.35,16.41c-.14,1.77-.3,3.02-.49,3.74-.24.97-.65,1.78-1.23,2.43-.57.65-1.36,1.18-2.35,1.6-.6.25-1.31.45-2.13.57Z"/><path class="cls-1" d="M110.36,40.68c-.82-2.53-.45-4.72,1.11-6.58,1.31-1.54,3.14-2.7,5.49-3.46,2.62-.85,4.95-.93,7.01-.24s3.44,2.12,4.15,4.29c.57,1.76.65,3.26.25,4.5-.41,1.25-1.22,2.38-2.44,3.39-1.22,1.01-2.66,1.79-4.32,2.33-2.66.87-5.02.95-7.06.26-2.04-.69-3.44-2.19-4.19-4.5ZM113.68,39.6c.57,1.75,1.53,2.89,2.87,3.41,1.35.52,2.82.52,4.44,0,1.6-.52,2.79-1.39,3.57-2.61.78-1.22.88-2.73.29-4.52-.55-1.69-1.5-2.79-2.85-3.32-1.35-.52-2.82-.53-4.41,0-1.61.52-2.81,1.39-3.59,2.6-.78,1.21-.89,2.69-.32,4.44Z"/><path class="cls-1" d="M147.82,37.43l-.49-2.05c-1.14,1.94-3.01,3.22-5.61,3.84-1.15.27-2.26.37-3.33.29-1.07-.08-1.9-.3-2.5-.66-.6-.36-1.07-.87-1.43-1.51-.25-.43-.49-1.15-.73-2.16l-2.06-8.65,3.3-.78,1.84,7.75c.29,1.24.56,2.05.79,2.45.35.57.91.96,1.67,1.15.76.2,1.63.17,2.62-.06.99-.24,1.87-.64,2.66-1.21.78-.57,1.28-1.21,1.49-1.92.21-.71.18-1.67-.11-2.86l-1.78-7.48,3.3-.78,3.32,13.97-2.95.7Z"/><path class="cls-1" d="M156.77,35.79l-1.98-14.22,3.02-.42.3,2.16c.63-1.12,1.25-1.88,1.86-2.29.61-.41,1.3-.67,2.09-.78,1.13-.16,2.32-.06,3.56.3l-.85,2.4c-.87-.23-1.71-.29-2.54-.18-.73.1-1.37.35-1.91.75-.54.4-.9.89-1.07,1.49-.25.91-.31,1.87-.17,2.89l1.04,7.45-3.36.47Z"/><path class="cls-1" d="M180.7,28.81l3.33-.55c.24.95.8,1.66,1.69,2.13.89.47,2.1.66,3.64.58,1.55-.08,2.7-.37,3.43-.86.73-.5,1.08-1.05,1.05-1.66-.03-.55-.38-.96-1.06-1.24-.48-.19-1.64-.41-3.5-.64-2.51-.32-4.25-.62-5.23-.9-.98-.28-1.73-.69-2.25-1.25-.53-.56-.81-1.18-.84-1.89-.03-.64.14-1.24.52-1.81.38-.57.91-1.05,1.59-1.44.51-.31,1.22-.58,2.12-.82.9-.24,1.87-.39,2.91-.44,1.57-.08,2.95,0,4.15.27,1.2.26,2.1.65,2.69,1.18.59.52,1.02,1.24,1.28,2.16l-3.29.5c-.19-.73-.65-1.28-1.4-1.66s-1.77-.53-3.09-.46c-1.55.08-2.66.32-3.3.73-.65.4-.96.85-.93,1.35.02.32.17.59.46.83.29.25.73.44,1.33.58.34.07,1.35.23,3.02.47,2.42.33,4.11.62,5.07.87.96.24,1.73.63,2.3,1.16.57.53.87,1.21.92,2.04.04.81-.25,1.59-.87,2.34-.62.75-1.54,1.35-2.76,1.81-1.22.46-2.62.73-4.18.81-2.6.13-4.59-.15-6-.85-1.4-.7-2.33-1.8-2.79-3.31Z"/><path class="cls-1" d="M201.25,24.91c-.02-2.66.99-4.64,3.04-5.93,1.71-1.08,3.8-1.63,6.28-1.65,2.75-.02,5,.61,6.76,1.89,1.76,1.28,2.64,3.06,2.66,5.34.02,1.85-.36,3.31-1.12,4.37-.76,1.07-1.88,1.9-3.35,2.49-1.47.6-3.08.9-4.82.92-2.8.02-5.07-.6-6.81-1.88-1.74-1.28-2.62-3.12-2.64-5.55ZM204.73,24.89c.01,1.84.58,3.21,1.71,4.12,1.13.91,2.54,1.35,4.23,1.34,1.68-.01,3.08-.48,4.19-1.41,1.11-.93,1.66-2.33,1.64-4.22-.01-1.78-.59-3.12-1.72-4.02-1.13-.91-2.53-1.35-4.2-1.34-1.7.01-3.1.48-4.21,1.4-1.11.92-1.66,2.3-1.64,4.14Z"/><path class="cls-1" d="M238.29,27.24l3.32.42c-.42,1.64-1.4,2.9-2.93,3.78-1.53.88-3.39,1.29-5.57,1.21-2.74-.09-4.91-.81-6.53-2.15-1.62-1.34-2.39-3.21-2.31-5.6.05-1.55.46-2.89,1.21-4.03.75-1.14,1.87-1.97,3.36-2.5,1.48-.53,3.08-.77,4.8-.71,2.17.08,3.93.53,5.29,1.37,1.35.83,2.2,1.99,2.54,3.45l-3.31.25c-.28-.97-.81-1.72-1.59-2.23-.78-.51-1.73-.79-2.86-.83-1.71-.06-3.11.33-4.21,1.18s-1.68,2.21-1.74,4.11c-.07,1.93.4,3.35,1.4,4.26,1,.91,2.33,1.39,3.98,1.45,1.33.05,2.45-.21,3.36-.76s1.51-1.44,1.79-2.64Z"/><path class="cls-1" d="M258.77,28.68l3.3.58c-.5,1.61-1.53,2.83-3.1,3.63-1.57.81-3.45,1.12-5.62.95-2.73-.22-4.87-1.04-6.42-2.46-1.55-1.41-2.23-3.32-2.04-5.71.13-1.54.59-2.87,1.4-3.97.81-1.1,1.96-1.88,3.47-2.34,1.51-.46,3.12-.62,4.83-.48,2.17.18,3.9.71,5.22,1.61,1.31.9,2.1,2.09,2.38,3.56l-3.32.1c-.23-.99-.73-1.75-1.48-2.3-.76-.55-1.7-.87-2.82-.96-1.7-.14-3.12.19-4.26.98-1.14.79-1.78,2.13-1.93,4.03-.16,1.92.24,3.36,1.2,4.32.96.95,2.26,1.5,3.91,1.63,1.33.11,2.46-.09,3.39-.61.94-.51,1.57-1.36,1.91-2.56Z"/><path class="cls-1" d="M279.69,32.17l3.41.85c-.77,1.37-1.96,2.33-3.57,2.9-1.6.57-3.55.67-5.85.31-2.89-.46-5.08-1.46-6.57-3-1.49-1.54-2.06-3.47-1.69-5.78.38-2.39,1.52-4.1,3.44-5.15,1.92-1.05,4.24-1.36,6.97-.93,2.64.42,4.7,1.4,6.17,2.96,1.47,1.56,2.02,3.5,1.65,5.84-.02.14-.06.36-.12.64l-14.74-2.32c-.12,1.58.3,2.87,1.28,3.87.97,1,2.28,1.63,3.94,1.89,1.23.19,2.31.13,3.25-.2.94-.33,1.75-.96,2.41-1.89ZM269.31,26.55l11.03,1.74c.04-1.22-.24-2.18-.84-2.88-.92-1.09-2.23-1.78-3.93-2.04-1.54-.24-2.89-.08-4.05.5-1.17.57-1.9,1.47-2.21,2.69Z"/><path class="cls-1" d="M287.18,38.57l3.83-13.84,2.94.82-.58,2.1c1.02-.77,1.89-1.23,2.62-1.37.72-.14,1.46-.1,2.23.11,1.1.3,2.15.87,3.15,1.69l-1.73,1.86c-.71-.56-1.46-.95-2.25-1.17-.71-.2-1.4-.22-2.05-.07s-1.18.47-1.57.95c-.59.73-1.03,1.59-1.3,2.58l-2.01,7.24-3.27-.9Z"/><path class="cls-1" d="M314.21,47.59l-2.88-1.26,7.94-18.16,3.11,1.36-2.83,6.48c1.83-.61,3.76-.47,5.8.43,1.13.49,2.12,1.12,2.99,1.89.86.77,1.49,1.59,1.88,2.46.39.87.59,1.81.59,2.8,0,1-.2,1.97-.62,2.92-.99,2.25-2.52,3.66-4.62,4.21-2.09.55-4.22.35-6.4-.6-2.16-.95-3.58-2.34-4.24-4.17l-.72,1.65ZM317.1,40.9c-.69,1.58-.89,2.85-.6,3.81.48,1.58,1.55,2.73,3.22,3.46,1.36.59,2.72.68,4.08.27,1.36-.41,2.41-1.46,3.14-3.14.75-1.72.83-3.19.24-4.42-.59-1.23-1.56-2.14-2.91-2.73-1.36-.59-2.72-.68-4.08-.27-1.36.41-2.39,1.42-3.09,3.03Z"/><path class="cls-1" d="M343.94,60.22c-1.47.07-2.79-.04-3.96-.32s-2.34-.74-3.51-1.38c-1.93-1.05-3.23-2.2-3.89-3.44-.67-1.24-.71-2.39-.14-3.44.34-.62.84-1.07,1.51-1.37.67-.3,1.41-.43,2.21-.39.8.04,1.64.19,2.52.47.64.21,1.58.58,2.82,1.12,2.51,1.11,4.42,1.83,5.71,2.16.17-.29.28-.47.32-.55.48-.87.53-1.64.16-2.3-.5-.9-1.49-1.76-2.99-2.58-1.4-.77-2.53-1.15-3.39-1.17s-1.69.34-2.5,1.06l-2.75-1.88c.75-.75,1.58-1.23,2.49-1.45.91-.22,2.01-.16,3.32.17,1.31.33,2.72.91,4.23,1.73,1.5.82,2.65,1.61,3.45,2.38.8.77,1.31,1.46,1.54,2.08.23.62.27,1.28.13,1.96-.1.42-.41,1.1-.93,2.05l-1.56,2.85c-1.08,1.99-1.71,3.27-1.87,3.87-.16.59-.19,1.24-.07,1.92l-3.11-1.7c-.07-.61.02-1.24.25-1.88ZM346.29,55.31c-1.25-.27-3.02-.89-5.3-1.85-1.29-.54-2.24-.87-2.83-.99-.59-.12-1.11-.1-1.55.05-.44.15-.76.42-.97.79-.31.57-.27,1.21.12,1.92.39.71,1.17,1.38,2.33,2.01,1.15.63,2.26,1,3.35,1.13,1.09.13,2.01,0,2.77-.4.58-.31,1.13-.93,1.65-1.87l.43-.78Z"/><path class="cls-1" d="M351.08,66.54l7.7-12.12,2.58,1.64-1.17,1.84c1.2-.44,2.17-.62,2.9-.54.73.08,1.43.33,2.1.76.96.61,1.8,1.46,2.52,2.53l-2.2,1.28c-.51-.74-1.12-1.33-1.82-1.78-.63-.4-1.27-.62-1.94-.67-.67-.05-1.26.1-1.78.45-.78.53-1.45,1.23-2,2.09l-4.03,6.34-2.86-1.82Z"/></svg>