<?xml version="1.0" encoding="UTF-8"?><svg id="Layer_4" xmlns="http://www.w3.org/2000/svg" viewBox="0 0 900.69 142.31"><defs><style>.cls-1{fill:#fff;stroke-width:0px;}</style></defs><path class="cls-1" d="M551.77,86.83l2.07,2.65c-1.98,1.28-4.04,1.8-6.17,1.55s-4.19-1.21-6.17-2.88c-2.05-1.73-3.43-3.48-4.12-5.26-.7-1.78-.83-3.61-.38-5.5.44-1.89,1.3-3.59,2.58-5.1,1.39-1.65,2.99-2.78,4.78-3.37,1.79-.59,3.66-.62,5.6-.08,1.94.54,3.74,1.51,5.42,2.93,1.9,1.6,3.16,3.36,3.78,5.26s.56,3.8-.16,5.7l-2.89-1.6c.53-1.53.6-2.91.2-4.14-.4-1.24-1.23-2.39-2.5-3.46-1.46-1.23-2.93-1.97-4.41-2.21-1.47-.24-2.83-.04-4.05.61-1.23.65-2.28,1.5-3.16,2.55-1.14,1.35-1.89,2.73-2.27,4.13-.38,1.4-.28,2.77.3,4.11.58,1.34,1.44,2.49,2.6,3.47,1.41,1.19,2.89,1.85,4.44,2,1.55.15,3.06-.31,4.53-1.35Z"/><path class="cls-1" d="M555.15,98.44l10.74-17.77,2.61,1.58-3.85,6.38c1.93-.44,3.83-.1,5.69,1.02,1.14.69,2.02,1.48,2.64,2.36.62.88.9,1.77.87,2.65-.04.88-.44,1.95-1.2,3.21l-4.93,8.16-2.62-1.58,4.93-8.16c.66-1.09.86-2.06.59-2.9-.27-.84-.92-1.57-1.95-2.2-.77-.47-1.6-.74-2.49-.82-.88-.08-1.65.08-2.28.48-.64.4-1.26,1.1-1.87,2.11l-4.26,7.04-2.61-1.58Z"/><path class="cls-1" d="M588.08,109.47l2.81,1.47c-1.03,1.25-2.33,2.01-3.9,2.3s-3.32.04-5.26-.73c-2.45-.98-4.14-2.38-5.07-4.21-.93-1.83-.94-3.88-.04-6.15.94-2.35,2.39-3.88,4.36-4.6s4.11-.62,6.42.31c2.24.9,3.81,2.26,4.72,4.1.91,1.84.91,3.91-.02,6.22-.06.14-.15.35-.27.63l-12.48-4.99c-.51,1.58-.46,2.96.15,4.15.61,1.19,1.61,2.06,3.01,2.62,1.04.42,2.02.54,2.94.38.92-.16,1.79-.66,2.62-1.48ZM580.29,101.92l9.34,3.74c.34-1.22.34-2.25-.02-3.07-.54-1.27-1.53-2.2-2.97-2.77-1.3-.52-2.54-.6-3.72-.22s-2.06,1.15-2.64,2.33Z"/><path class="cls-1" d="M608.5,115.65l2.96,1.14c-.88,1.36-2.08,2.27-3.61,2.73-1.52.47-3.29.43-5.31-.12-2.54-.69-4.38-1.89-5.52-3.6-1.14-1.71-1.38-3.75-.75-6.11.66-2.44,1.93-4.13,3.8-5.07,1.87-.94,4.01-1.08,6.41-.43,2.33.63,4.05,1.81,5.16,3.53,1.12,1.72,1.35,3.78.7,6.17-.04.15-.1.36-.19.65l-12.97-3.51c-.32,1.62-.11,2.99.63,4.1.74,1.11,1.84,1.86,3.29,2.26,1.08.29,2.07.31,2.96.04s1.7-.86,2.43-1.78ZM599.89,109.05l9.71,2.63c.2-1.26.08-2.27-.37-3.05-.68-1.2-1.77-2.01-3.27-2.41-1.35-.37-2.59-.3-3.72.21-1.13.51-1.91,1.38-2.35,2.62Z"/><path class="cls-1" d="M616.14,122.28l2.73-14.79,2.7.5-.41,2.24c.88-.92,1.65-1.5,2.29-1.72.65-.23,1.32-.28,2.02-.15,1.01.19,1.99.65,2.94,1.38l-1.46,2.13c-.67-.5-1.37-.81-2.1-.95-.66-.12-1.28-.06-1.86.17s-1.04.62-1.37,1.17c-.5.83-.84,1.77-1.04,2.83l-1.43,7.74-3-.55Z"/><path class="cls-1" d="M628.51,119.88l3.05.03c.03,1.02.39,1.86,1.08,2.5.69.64,1.73,1.06,3.11,1.25,1.39.19,2.45.1,3.19-.28.74-.38,1.15-.88,1.24-1.52.08-.57-.15-1.06-.7-1.47-.38-.28-1.37-.71-2.97-1.29-2.15-.78-3.63-1.4-4.44-1.86-.81-.46-1.39-1.02-1.75-1.69-.36-.66-.49-1.36-.38-2.09.09-.66.36-1.25.8-1.77.44-.51,1-.92,1.69-1.2.51-.22,1.19-.38,2.03-.47.84-.09,1.73-.07,2.66.06,1.4.2,2.61.54,3.62,1.02,1.01.48,1.73,1.05,2.15,1.7.42.65.66,1.46.72,2.45l-3-.08c-.03-.79-.33-1.44-.92-1.96-.58-.52-1.46-.86-2.64-1.03-1.39-.2-2.41-.14-3.06.16s-1.01.71-1.08,1.22c-.05.33.04.64.25.94.21.31.56.58,1.07.83.29.14,1.15.48,2.58,1.02,2.07.78,3.51,1.38,4.31,1.8.8.42,1.41.96,1.81,1.61s.54,1.4.42,2.26c-.12.84-.52,1.59-1.22,2.25-.69.66-1.62,1.12-2.79,1.37-1.17.25-2.45.28-3.85.08-2.32-.33-4.03-.97-5.13-1.95-1.1-.97-1.71-2.27-1.83-3.9Z"/><path class="cls-1" d="M664.81,126.61l.21,2.29c-.87.06-1.64.06-2.32-.01-1.1-.11-1.94-.35-2.52-.7-.58-.35-.97-.78-1.17-1.28-.2-.5-.22-1.51-.06-3.03l.88-8.61-2.23-.23.2-1.97,2.23.23.38-3.7,3.18-1.21-.54,5.23,3.06.32-.2,1.97-3.06-.31-.9,8.75c-.07.72-.07,1.19.02,1.41.09.22.24.4.47.55.23.15.57.24,1.02.29.34.04.79.05,1.34.04Z"/><path class="cls-1" d="M668.16,121.72c.2-2.78,1.27-4.77,3.22-5.97,1.62-1,3.55-1.42,5.77-1.26,2.47.18,4.44,1,5.92,2.46,1.47,1.46,2.12,3.39,1.95,5.77-.14,1.93-.59,3.42-1.37,4.48-.77,1.06-1.84,1.84-3.21,2.36-1.37.52-2.84.72-4.41.61-2.52-.18-4.5-1-5.96-2.46-1.46-1.46-2.09-3.45-1.91-5.99ZM671.29,121.95c-.14,1.92.26,3.39,1.2,4.42.94,1.03,2.17,1.6,3.69,1.71,1.51.11,2.8-.28,3.88-1.17,1.07-.89,1.68-2.32,1.82-4.29.13-1.86-.27-3.3-1.21-4.32-.94-1.03-2.16-1.6-3.66-1.7-1.52-.11-2.82.28-3.89,1.16s-1.68,2.28-1.81,4.2Z"/><path class="cls-1" d="M713.28,125.92l3.16.28c-.48,1.55-1.38,2.75-2.71,3.62-1.33.87-3.05,1.32-5.14,1.35-2.64.04-4.74-.61-6.3-1.94-1.56-1.33-2.36-3.22-2.4-5.67-.04-2.53.71-4.5,2.26-5.92,1.54-1.42,3.56-2.15,6.04-2.18,2.41-.04,4.39.62,5.94,1.97,1.55,1.35,2.34,3.26,2.38,5.74,0,.15,0,.38,0,.68l-13.44.2c.14,1.65.72,2.91,1.74,3.77,1.02.86,2.28,1.28,3.79,1.26,1.12-.02,2.07-.28,2.86-.78.79-.5,1.4-1.29,1.85-2.38ZM703.19,121.95l10.06-.15c-.15-1.26-.55-2.21-1.2-2.83-.99-.97-2.26-1.44-3.81-1.42-1.4.02-2.58.43-3.52,1.23s-1.46,1.85-1.54,3.17Z"/><path class="cls-1" d="M727.38,129.93l-8.16-14.37,3.21-.29,4.65,8.63c.5.93.98,1.9,1.42,2.92.2-.81.49-1.8.88-2.95l3.18-9.5,3.13-.28-5.46,15.58-2.84.25Z"/><path class="cls-1" d="M753.24,121.36l3.16-.26c-.21,1.6-.89,2.95-2.06,4.03-1.17,1.08-2.78,1.82-4.84,2.2-2.59.48-4.77.2-6.54-.85-1.77-1.05-2.88-2.77-3.32-5.18-.46-2.49-.06-4.56,1.22-6.22,1.28-1.66,3.14-2.72,5.59-3.18,2.37-.44,4.43-.13,6.18.93s2.86,2.82,3.31,5.26c.03.15.06.37.11.67l-13.21,2.47c.41,1.6,1.2,2.74,2.35,3.42,1.15.68,2.47.88,3.95.6,1.1-.21,2-.62,2.68-1.25.69-.63,1.16-1.51,1.42-2.66ZM742.62,119.15l9.89-1.85c-.37-1.22-.92-2.08-1.66-2.59-1.14-.79-2.47-1.04-3.99-.75-1.38.26-2.47.86-3.26,1.8s-1.12,2.07-.98,3.38Z"/><path class="cls-1" d="M763.26,123.87l-4.28-14.41,2.64-.78.65,2.19c.37-1.22.79-2.08,1.26-2.58.47-.5,1.05-.84,1.73-1.05.99-.29,2.07-.33,3.24-.11l-.33,2.57c-.82-.14-1.59-.1-2.31.11-.64.19-1.17.52-1.58.99-.41.47-.64,1.03-.69,1.66-.07.96.05,1.96.36,3l2.24,7.55-2.93.87Z"/><path class="cls-1" d="M779.04,124.96l-1.27-2.06c.67-.13,1.24-.29,1.69-.49.62-.27,1.08-.57,1.38-.91.3-.34.5-.71.6-1.13.08-.31.11-1.01.1-2.11,0-.15,0-.38,0-.68l-12.28-11.09,3.02-1.31,6.91,6.49c.89.82,1.75,1.71,2.59,2.67-.15-1.21-.22-2.43-.21-3.64l.04-9.57,2.8-1.22-.19,16.76c-.02,1.81-.09,3.08-.21,3.81-.16.99-.49,1.8-.98,2.44-.49.64-1.18,1.15-2.07,1.54-.54.23-1.18.4-1.93.5Z"/><path class="cls-1" d="M805.28,105.98l2.63-1.43c.55.55,1.15.8,1.81.76.89-.06,1.87-.47,2.94-1.23,1.15-.82,1.9-1.65,2.25-2.48s.39-1.67.12-2.52c-.17-.51-.75-1.44-1.72-2.79-.32,1.84-1.3,3.34-2.92,4.5-2.02,1.44-4.01,1.95-5.98,1.52-1.97-.42-3.56-1.49-4.78-3.18-.83-1.17-1.35-2.43-1.55-3.78-.2-1.35,0-2.64.57-3.86.58-1.22,1.52-2.3,2.81-3.23,1.73-1.24,3.58-1.67,5.53-1.31l-1.05-1.47,2.29-1.64,7.56,10.58c1.36,1.91,2.09,3.42,2.2,4.55.1,1.13-.18,2.28-.86,3.46-.68,1.18-1.75,2.3-3.23,3.35-1.75,1.25-3.4,1.93-4.94,2.04-1.55.11-2.77-.5-3.68-1.85ZM802.09,97.15c1.15,1.61,2.37,2.5,3.66,2.7,1.29.19,2.51-.12,3.66-.95,1.14-.82,1.84-1.87,2.09-3.15.25-1.29-.19-2.71-1.3-4.28-1.07-1.5-2.27-2.34-3.61-2.54-1.34-.19-2.57.11-3.69.92-1.1.79-1.78,1.83-2.01,3.14-.24,1.3.17,2.69,1.22,4.16Z"/><path class="cls-1" d="M816.49,87.04c-1.74-2.17-2.31-4.36-1.7-6.57.51-1.84,1.64-3.46,3.38-4.85,1.93-1.55,3.94-2.29,6.01-2.21,2.07.07,3.86,1.04,5.35,2.91,1.21,1.51,1.89,2.92,2.04,4.22.15,1.3-.1,2.61-.76,3.92-.65,1.31-1.59,2.46-2.82,3.44-1.97,1.58-3.98,2.33-6.04,2.24-2.06-.08-3.88-1.11-5.47-3.1ZM818.94,85.08c1.2,1.5,2.5,2.31,3.88,2.43,1.39.12,2.67-.3,3.87-1.25,1.18-.95,1.87-2.11,2.05-3.49.18-1.38-.34-2.84-1.57-4.38-1.16-1.45-2.44-2.24-3.83-2.35-1.39-.12-2.67.3-3.85,1.24-1.19.96-1.88,2.12-2.07,3.49-.19,1.38.32,2.81,1.52,4.32Z"/><path class="cls-1" d="M846.02,69.7c-.31,1.35-.75,2.5-1.32,3.44-.56.94-1.29,1.81-2.19,2.61-1.48,1.31-2.89,2.02-4.22,2.12-1.33.1-2.41-.32-3.25-1.26-.49-.55-.79-1.19-.89-1.91-.1-.72-.03-1.44.21-2.15.24-.71.61-1.4,1.09-2.08.36-.5.95-1.19,1.78-2.09,1.68-1.82,2.85-3.24,3.5-4.27-.22-.27-.37-.44-.43-.51-.69-.78-1.39-1.13-2.1-1.07-.97.09-2.03.64-3.18,1.66-1.08.95-1.73,1.81-1.96,2.58-.23.77-.12,1.66.34,2.68l-2.46,1.73c-.5-.98-.74-1.92-.71-2.82.03-.9.37-1.88,1.01-2.92.65-1.05,1.55-2.08,2.71-3.11,1.15-1.02,2.19-1.74,3.11-2.15.92-.41,1.7-.6,2.34-.55s1.26.26,1.86.67c.36.26.92.81,1.67,1.66l2.25,2.54c1.57,1.77,2.61,2.85,3.13,3.24.51.38,1.11.66,1.78.84l-2.39,2.12c-.59-.18-1.15-.51-1.69-.98ZM842.06,65.61c-.58,1.02-1.61,2.36-3.09,4.03-.84.95-1.39,1.66-1.66,2.15-.26.49-.38.96-.35,1.42.03.46.19.86.49,1.19.45.51,1.06.73,1.82.66.76-.07,1.59-.5,2.48-1.29.88-.78,1.52-1.64,1.92-2.56.4-.93.52-1.82.34-2.66-.14-.65-.58-1.39-1.32-2.23l-.62-.7Z"/><path class="cls-1" d="M853.93,64.86l-14.4-14.96,2.2-2.12,14.4,14.96-2.2,2.12Z"/></svg>