<?xml version="1.0" encoding="UTF-8"?>
<svg id="Layer_6" data-name="Layer 6" xmlns="http://www.w3.org/2000/svg" viewBox="0 0 127.91 33.79">
  <path d="M28.25,22.91h3.49c.09,1.53.87,2.31,2.21,2.31,1.62,0,2.25-1.12,2.25-3.03v-6.27h3.49v6.36c0,2.28.87,2.93,2.15,2.93,1.65,0,2.28-1.09,2.28-3.03v-6.27h3.49v6.21c0,3.62-1.31,6.64-5.71,6.64-1.87,0-3.27-.56-3.96-1.43-.72.9-2.15,1.43-3.99,1.43-5.27,0-5.65-4.3-5.71-5.86Z" fill="#231f20" stroke-width="0"/>
  <path d="M50.61,21.41c.06-1.56.41-5.86,5.99-5.86,4.65,0,5.96,3.02,5.96,6.64v6.21h-3.49v-6.27c0-1.9-.62-3.03-2.5-3.03-1.59,0-2.37.78-2.46,2.31h-3.49Z" fill="#231f20" stroke-width="0"/>
  <path d="M65.17,17.35c0-6.67,5.12-11.42,11.35-11.42v4.12c-3.87,0-6.99,2.93-6.99,7.33s3.12,7.27,6.89,7.27c3.09,0,5.64-1.65,6.67-4.37h-6.83v-3.49h11.7c.03.19.03.37.03.56,0,6.67-5.11,11.42-11.42,11.42s-11.41-4.74-11.41-11.42Z" fill="#231f20" stroke-width="0"/>
  <path d="M89.68,22.16c0-3.96,2.96-6.61,6.61-6.61s6.61,2.65,6.61,6.61-2.96,6.61-6.61,6.61-6.61-2.65-6.61-6.61ZM96.29,25.53c1.81,0,3.31-1.19,3.31-3.37s-1.5-3.37-3.31-3.37-3.31,1.19-3.31,3.37,1.5,3.37,3.31,3.37Z" fill="#231f20" stroke-width="0"/>
  <path d="M105.15,22.13c0-3.77,2.5-6.58,6.71-6.58,3.93,0,6.24,2.43,6.39,5.86h-3.49c-.03-1.43-1.31-2.62-3.06-2.62s-3.24,1.19-3.24,3.4,1.47,3.34,3.4,3.34,2.81-1.12,2.9-1.75v3.74c-.56.62-1.53,1.25-3.27,1.25-3.71,0-6.33-2.81-6.33-6.64Z" fill="#231f20" stroke-width="0"/>
  <path d="M121.49,6.31h3.49v22.08h-3.49V6.31Z" fill="#231f20" stroke-width="0"/>
  <g>
    <path d="M2.81,17.35c0-6.67,5.11-11.42,11.42-11.42s11.42,4.74,11.42,11.42-5.12,11.42-11.42,11.42S2.81,24.03,2.81,17.35ZM14.22,24.65c3.93,0,7.05-2.87,7.05-7.27s-3.12-7.33-7.05-7.33-7.05,2.93-7.05,7.33,3.12,7.27,7.05,7.27Z" fill="#231f20" stroke-width="0"/>
    <g id="small_ball" data-name="small ball">
      <path d="M19.48,12.96c.11.59.23,1.18.31,1.78.04.34-.12.58-.47.71-.48.19-.95.42-1.4.71.52-.11,1.04-.19,1.55-.33.33-.09.58,0,.74.26.3.54.57,1.1.84,1.64.1-.14.06-.12.22-.35.08,1.14-.34,3.13-1.29,4.37,0-.32.02-.59.02-.8-.57.29-1.11.58-1.66.85-.29.14-.54.04-.75-.21-.31-.36-.64-.7-1.05-1,.22.39.42.8.68,1.17.25.36.23.69-.04.98-.39.42-.83.8-1.23,1.19.2.06.49.24.74.31-1.56.61-3.7.53-5.08-.06.38-.11.63-.19.93-.28-.21-.14-.42-.26-.6-.42-.23-.19-.44-.4-.64-.63-.31-.36-.41-.73-.08-1.16.27-.36.46-.78.62-1.22-.34.37-.7.73-1.02,1.11-.22.27-.48.37-.79.22-.56-.27-1.1-.57-1.62-.85v.73c-.91-1.34-1.19-2.64-1.24-4.3.04.09.07.2.22.39.2-.47.37-.96.61-1.42.22-.43.55-.67,1.1-.48.43.15.9.2,1.38.22-.46-.21-.91-.45-1.38-.62-.38-.14-.54-.4-.5-.75.07-.58.2-1.16.31-1.73-.18.06-.4.22-.65.3.9-1.43,2.23-2.49,3.86-2.94-.16.21-.32.46-.47.66.5.04,1.01.06,1.52.13.5.08.84.33.84.92,0,.47.09.95.21,1.43.06-.51.15-1.03.17-1.54.02-.39.19-.65.55-.72.59-.12,1.19-.18,1.76-.26-.12-.15-.27-.42-.44-.64,1.05.17,3.01,1.39,3.89,2.92-.18-.05-.23-.11-.36-.16-.13-.04-.24-.11-.32-.14ZM14.2,14c-.99.72-1.97,1.42-2.94,2.14-.09.07-.16.29-.13.4.33,1.07.67,2.13,1.04,3.18.04.12.24.27.36.27,1.11.02,2.21.02,3.32,0,.13,0,.32-.15.36-.26.37-1.05.71-2.11,1.04-3.18.03-.11-.03-.32-.12-.39-.97-.73-1.95-1.43-2.94-2.15Z" fill="#fff" stroke-width="0"/>
    </g>
  </g>
</svg>