<?xml version="1.0" encoding="UTF-8"?>
<svg id="Layer_3" data-name="Layer 3" xmlns="http://www.w3.org/2000/svg" viewBox="0 0 127.91 33.79">
  <path d="M28.25,22.91h3.49c.09,1.53.87,2.31,2.21,2.31,1.62,0,2.25-1.12,2.25-3.03v-6.27h3.49v6.36c0,2.28.87,2.93,2.15,2.93,1.65,0,2.28-1.09,2.28-3.03v-6.27h3.49v6.21c0,3.62-1.31,6.64-5.71,6.64-1.87,0-3.27-.56-3.96-1.43-.72.9-2.15,1.43-3.99,1.43-5.27,0-5.65-4.3-5.71-5.86Z" fill="#231f20" stroke-width="0"/>
  <path d="M50.61,21.41c.06-1.56.41-5.86,5.99-5.86,4.65,0,5.96,3.02,5.96,6.64v6.21h-3.49v-6.27c0-1.9-.62-3.03-2.5-3.03-1.59,0-2.37.78-2.46,2.31h-3.49Z" fill="#231f20" stroke-width="0"/>
  <path d="M65.17,17.35c0-6.67,5.12-11.42,11.35-11.42v4.12c-3.87,0-6.99,2.93-6.99,7.33s3.12,7.27,6.89,7.27c3.09,0,5.64-1.65,6.67-4.37h-6.83v-3.49h11.7c.03.19.03.37.03.56,0,6.67-5.11,11.42-11.42,11.42s-11.41-4.74-11.41-11.42Z" fill="#231f20" stroke-width="0"/>
  <path d="M89.68,22.16c0-3.96,2.96-6.61,6.61-6.61s6.61,2.65,6.61,6.61-2.96,6.61-6.61,6.61-6.61-2.65-6.61-6.61ZM96.29,25.53c1.81,0,3.31-1.19,3.31-3.37s-1.5-3.37-3.31-3.37-3.31,1.19-3.31,3.37,1.5,3.37,3.31,3.37Z" fill="#231f20" stroke-width="0"/>
  <path d="M105.15,22.13c0-3.77,2.5-6.58,6.71-6.58,3.93,0,6.24,2.43,6.39,5.86h-3.49c-.03-1.43-1.31-2.62-3.06-2.62s-3.24,1.19-3.24,3.4,1.47,3.34,3.4,3.34,2.81-1.12,2.9-1.75v3.74c-.56.62-1.53,1.25-3.27,1.25-3.71,0-6.33-2.81-6.33-6.64Z" fill="#231f20" stroke-width="0"/>
  <path d="M121.49,6.31h3.49v22.08h-3.49V6.31Z" fill="#231f20" stroke-width="0"/>
  <path d="M4.54,17.23c0-5.38,4.13-9.46,9.65-9.46s9.65,4.08,9.65,9.46-4.16,9.46-9.65,9.46-9.65-4.08-9.65-9.46Z" fill="#231f20" stroke-width="0"/>
  <g>
    <path d="M2.81,17.35c0-6.67,5.11-11.42,11.42-11.42s11.42,4.74,11.42,11.42-5.12,11.42-11.42,11.42S2.81,24.03,2.81,17.35ZM14.22,24.65c3.93,0,7.05-2.87,7.05-7.27s-3.12-7.33-7.05-7.33-7.05,2.93-7.05,7.33,3.12,7.27,7.05,7.27Z" fill="#231f20" stroke-width="0"/>
    <g id="small_ball" data-name="small ball">
      <path d="M14.17,25.6c-4.23-.02-7.7-3.5-7.67-7.7.03-4.26,3.46-7.68,7.69-7.68,4.29,0,7.7,3.47,7.67,7.81-.03,4.17-3.5,7.59-7.69,7.57Z" fill="#000" stroke-width="0"/>
      <path d="M19.76,12.72c.11.63.25,1.25.33,1.89.05.36-.13.62-.5.76-.51.2-1,.45-1.48.75.55-.11,1.11-.2,1.65-.35.35-.1.62,0,.78.28.32.57.6,1.17.89,1.74.1-.15.26-.37.43-.62.33,1.21-.51,3.82-1.53,4.88v-.84c-.6.31-1.18.62-1.76.9-.31.15-.57.04-.79-.23-.33-.39-.68-.75-1.11-1.06.24.42.45.85.72,1.24.26.38.24.73-.04,1.04-.42.45-.87.85-1.31,1.26.21.06.48.15.76.23-1.75.71-3.48.71-5.35.04.4-.12.67-.2.99-.29-.22-.15-.45-.28-.64-.45-.24-.21-.47-.43-.68-.67-.33-.38-.44-.77-.09-1.24.29-.38.49-.83.65-1.29-.36.39-.74.77-1.08,1.18-.24.28-.51.39-.83.23-.59-.29-1.16-.61-1.71-.9v.77c-1.16-1.39-1.65-2.99-1.56-4.81.17.23.33.45.48.66.21-.5.39-1.02.65-1.51.24-.45.59-.71,1.17-.51.46.16.95.21,1.46.23-.49-.22-.96-.48-1.46-.66-.41-.15-.57-.43-.53-.8.07-.62.22-1.23.33-1.84-.2.07-.46.16-.73.25.98-1.56,2.35-2.57,4.15-3.01-.17.23-.34.45-.51.67.53.04,1.07.06,1.61.14.53.08.89.35.89.97,0,.5.09,1.01.22,1.52.06-.55.16-1.09.18-1.64.02-.42.2-.69.58-.76.62-.12,1.26-.19,1.87-.28-.12-.16-.29-.39-.47-.63,1.07-.08,3.42,1.59,4.22,3-.19-.05-.34-.07-.47-.12-.13-.05-.26-.11-.34-.15ZM14.17,13.82c-1.05.76-2.09,1.51-3.11,2.28-.1.07-.17.3-.14.42.35,1.13.71,2.26,1.1,3.38.04.13.25.28.38.28,1.17.02,2.35.02,3.52,0,.13,0,.34-.15.38-.28.39-1.12.76-2.25,1.11-3.38.04-.12-.03-.34-.13-.42-1.02-.77-2.06-1.52-3.11-2.29Z" fill="#fff" stroke-width="0"/>
    </g>
  </g>
</svg>