<?xml version="1.0" encoding="UTF-8"?>
<svg id="Layer_2" data-name="Layer 2" xmlns="http://www.w3.org/2000/svg" viewBox="0 0 43.14 33.79">
  <path d="M17.31,17.25c0-6.67,5.12-11.42,11.35-11.42v4.12c-3.87,0-6.99,2.93-6.99,7.33s3.12,7.27,6.89,7.27c3.09,0,5.64-1.65,6.67-4.37h-6.83v-3.49h11.7c.03.19.03.37.03.56,0,6.67-5.11,11.42-11.42,11.42s-11.41-4.74-11.41-11.42Z" fill="#231f20" stroke-width="0"/>
  <path d="M4.43,17.47c0-5.38,4.13-9.46,9.65-9.46s9.65,4.08,9.65,9.46-4.16,9.46-9.65,9.46-9.65-4.08-9.65-9.46Z" fill="#231f20" stroke-width="0"/>
  <g>
    <path d="M2.7,17.47c.07-6.67,5.24-11.36,11.54-11.29s11.36,4.86,11.29,11.54-5.24,11.36-11.54,11.29S2.63,24.14,2.7,17.47ZM14.03,24.89c3.93.04,7.08-2.79,7.13-7.19s-3.04-7.36-6.97-7.4-7.08,2.86-7.13,7.25,3.04,7.3,6.97,7.34Z" fill="#231f20" stroke-width="0"/>
    <g id="small_ball" data-name="small ball">
      <path d="M13.98,25.84c-4.23-.07-7.66-3.59-7.58-7.78.08-4.26,3.54-7.64,7.77-7.59,4.29.05,7.66,3.55,7.59,7.89-.07,4.17-3.59,7.55-7.77,7.49Z" fill="#000" stroke-width="0"/>
      <path d="M19.7,13.02c.1.63.23,1.26.31,1.89.04.36-.14.61-.51.75-.51.19-1.01.44-1.49.74.55-.11,1.11-.19,1.65-.33.35-.09.62,0,.78.29.32.57.59,1.17.87,1.75.11-.15.26-.37.43-.62.32,1.22-.55,3.82-1.58,4.87v-.84c-.6.3-1.17.61-1.76.88-.31.15-.57.03-.79-.24-.32-.39-.67-.75-1.1-1.07.23.42.44.86.71,1.25.26.38.23.73-.06,1.04-.42.44-.88.84-1.32,1.25.21.07.48.15.75.24-1.75.69-3.49.67-5.35-.02.4-.11.67-.19.99-.28-.22-.15-.44-.28-.64-.45-.24-.21-.46-.43-.67-.67-.32-.39-.43-.78-.07-1.24.29-.38.5-.82.67-1.29-.37.39-.75.76-1.1,1.17-.24.28-.52.39-.84.22-.58-.29-1.15-.62-1.7-.92v.77c-1.15-1.4-1.63-3-1.52-4.82.16.23.33.46.48.66.21-.49.4-1.02.66-1.5.24-.45.59-.7,1.17-.5.46.16.95.22,1.46.24-.48-.23-.96-.49-1.46-.67-.4-.15-.56-.44-.52-.8.08-.62.23-1.23.35-1.84-.2.06-.46.15-.73.24.99-1.55,2.37-2.54,4.18-2.97-.17.22-.35.45-.51.66.53.05,1.07.07,1.61.16.53.09.88.36.88.98,0,.5.08,1.01.2,1.52.07-.54.17-1.09.2-1.63.02-.42.21-.68.59-.75.63-.12,1.26-.18,1.87-.26-.12-.16-.29-.39-.46-.63,1.07-.07,3.41,1.63,4.19,3.05-.19-.05-.33-.08-.47-.13-.13-.05-.26-.12-.33-.15ZM14.1,14.06c-1.06.75-2.1,1.49-3.14,2.24-.1.07-.18.3-.14.42.34,1.14.69,2.27,1.06,3.39.04.13.25.28.38.29,1.17.03,2.35.05,3.52.04.13,0,.34-.15.39-.28.4-1.11.78-2.24,1.14-3.37.04-.12-.03-.34-.13-.42-1.02-.78-2.05-1.54-3.09-2.32Z" fill="#fff" stroke-width="0"/>
    </g>
  </g>
</svg>