<?xml version="1.0" encoding="UTF-8"?>
<svg id="Layer_2" data-name="Layer 2" xmlns="http://www.w3.org/2000/svg" viewBox="0 0 72 72">
  <path d="M.33,35.55C.55,14.69,16.7.05,36.38.26s35.51,15.2,35.29,36.05c-.22,20.86-16.37,35.5-36.05,35.29C15.93,71.39.11,56.4.33,35.55ZM35.76,58.73c12.28.13,22.12-8.73,22.27-22.47s-9.5-23.01-21.78-23.14c-12.28-.13-22.12,8.92-22.27,22.67-.15,13.74,9.5,22.81,21.78,22.94Z" fill="#231f20" stroke-width="0"/>
  <g id="small_ball" data-name="small ball">
    <path d="M35.61,60.21c-13.22-.2-23.94-11.21-23.7-24.33.25-13.31,11.06-23.88,24.28-23.73,13.41.15,23.93,11.09,23.7,24.66-.22,13.02-11.2,23.6-24.29,23.4Z" fill="#000" stroke-width="0"/>
    <path d="M53.46,21.64c.33,1.97.72,3.93.96,5.91.13,1.13-.42,1.92-1.59,2.36-1.61.6-3.15,1.37-4.66,2.3,1.72-.33,3.46-.59,5.15-1.02,1.1-.29,1.93,0,2.42.89.99,1.79,1.83,3.66,2.72,5.46.33-.47.81-1.16,1.36-1.93.99,3.81-1.71,11.92-4.95,15.21l.03-2.61c-1.89.95-3.7,1.89-5.54,2.76-.98.46-1.77.1-2.47-.74-1-1.22-2.11-2.35-3.44-3.35.73,1.31,1.37,2.67,2.21,3.9.81,1.19.73,2.29-.17,3.24-1.31,1.38-2.76,2.62-4.12,3.9.66.21,1.51.47,2.36.74-5.48,2.17-10.89,2.1-16.71-.06,1.25-.36,2.1-.6,3.09-.89-.69-.48-1.39-.89-1.99-1.41-.74-.65-1.45-1.35-2.09-2.11-1.01-1.2-1.34-2.42-.23-3.86.91-1.18,1.56-2.56,2.09-4.02-1.15,1.21-2.34,2.38-3.42,3.65-.75.87-1.61,1.2-2.62.7-1.83-.92-3.61-1.94-5.32-2.87l-.03,2.41c-3.58-4.37-5.06-9.39-4.72-15.08.51.71,1.02,1.42,1.49,2.08.67-1.55,1.27-3.18,2.08-4.7.75-1.41,1.86-2.2,3.67-1.55,1.42.51,2.97.68,4.56.76-1.51-.71-2.99-1.53-4.55-2.11-1.26-.47-1.76-1.36-1.61-2.5.25-1.93.71-3.84,1.09-5.75-.61.2-1.45.48-2.29.76,3.11-4.85,7.41-7.94,13.06-9.28-.54.7-1.09,1.41-1.61,2.08,1.65.16,3.35.22,5.02.5,1.65.28,2.75,1.13,2.75,3.07,0,1.58.26,3.15.63,4.76.21-1.7.52-3.4.61-5.11.07-1.3.65-2.13,1.83-2.36,1.96-.37,3.94-.55,5.84-.8-.38-.52-.89-1.21-1.45-1.97,3.34-.22,10.64,5.09,13.09,9.52-.6-.16-1.05-.24-1.47-.4-.41-.15-.8-.36-1.04-.47ZM35.95,24.89c-3.3,2.35-6.57,4.64-9.8,7.01-.31.23-.56.94-.45,1.32,1.05,3.55,2.15,7.09,3.32,10.6.13.4.77.89,1.19.9,3.66.11,7.33.15,10.99.12.42,0,1.07-.47,1.21-.87,1.25-3.48,2.44-6.99,3.57-10.52.12-.37-.09-1.08-.39-1.31-3.17-2.44-6.4-4.82-9.65-7.25Z" fill="#fff" stroke-width="0"/>
  </g>
</svg>