<?xml version="1.0" encoding="UTF-8"?><svg id="Layer_4" xmlns="http://www.w3.org/2000/svg" xmlns:xlink="http://www.w3.org/1999/xlink" viewBox="0 0 900.69 209.58"><defs><style>.cls-1{clip-path:url(#clippath);}.cls-2{fill:none;}.cls-2,.cls-3{stroke-width:0px;}.cls-4{clip-path:url(#clippath-1);}.cls-5{clip-path:url(#clippath-2);}.cls-3{fill:#fff;}</style><clipPath id="clippath"><rect class="cls-2" x="313.85" y="91.1" width="161.71" height="93.82" rx="12" ry="12"/></clipPath><clipPath id="clippath-1"><rect class="cls-2" x="3.95" y="3.98" width="221.67" height="138.43" rx="13.23" ry="13.23"/></clipPath><clipPath id="clippath-2"><rect class="cls-2" x="606.61" y="31.93" width="290.49" height="174.63" rx="17.39" ry="17.39"/></clipPath></defs><g class="cls-1"><image width="786" height="523" transform="translate(310.23 86.69) scale(.22)" xlink:href="/assets/cheers_image.jpg"/></g><g class="cls-4"><image width="881" height="496" transform="translate(-13.63 2.36) scale(.29)" xlink:href="/assets/goal_image.jpg"/></g><g class="cls-5"><image width="881" height="496" transform="translate(597.9 28.98) scale(.36)" xlink:href="/assets/excited_image.jpg"/></g><path class="cls-3" d="M569.12,154.45l2.28,2.62c-1.97,1.43-4.06,2.08-6.28,1.94-2.21-.14-4.39-1.01-6.52-2.62-2.21-1.67-3.72-3.4-4.54-5.19-.82-1.79-1.05-3.68-.7-5.64.35-1.97,1.14-3.77,2.37-5.4,1.34-1.78,2.92-3.03,4.74-3.74,1.82-.71,3.74-.84,5.76-.4,2.02.45,3.94,1.35,5.75,2.72,2.05,1.54,3.45,3.28,4.19,5.21.74,1.93.79,3.88.15,5.88l-3.07-1.49c.46-1.6.46-3.03-.02-4.28-.48-1.25-1.4-2.39-2.77-3.42-1.58-1.19-3.13-1.87-4.66-2.03-1.53-.17-2.91.12-4.14.86-1.23.74-2.27,1.67-3.12,2.8-1.1,1.45-1.8,2.92-2.11,4.38-.31,1.47-.13,2.88.54,4.22.67,1.35,1.63,2.49,2.88,3.43,1.52,1.15,3.08,1.75,4.69,1.81,1.61.06,3.14-.48,4.59-1.64Z"/><path class="cls-3" d="M573.41,166.27l9.89-19.01,2.8,1.46-3.55,6.82c1.96-.58,3.94-.36,5.92.68,1.22.63,2.18,1.39,2.87,2.26.69.87,1.05,1.76,1.07,2.67.02.91-.32,2.04-1.02,3.39l-4.54,8.73-2.8-1.46,4.54-8.73c.61-1.17.75-2.17.42-3.02-.33-.85-1.05-1.56-2.16-2.13-.83-.43-1.7-.66-2.62-.68-.92-.02-1.69.19-2.32.65s-1.23,1.22-1.79,2.3l-3.92,7.53-2.8-1.45Z"/><path class="cls-3" d="M608.07,175.45l2.99,1.33c-.98,1.35-2.27,2.23-3.86,2.63-1.59.4-3.42.27-5.47-.4-2.59-.85-4.42-2.18-5.5-4-1.08-1.82-1.23-3.94-.45-6.33.81-2.48,2.21-4.16,4.19-5.03,1.98-.87,4.19-.91,6.63-.11,2.37.77,4.08,2.08,5.14,3.91,1.06,1.83,1.19,3.97.4,6.4-.05.15-.13.37-.23.66l-13.19-4.31c-.42,1.66-.27,3.08.43,4.26.71,1.18,1.8,2.02,3.27,2.5,1.1.36,2.12.42,3.05.2.93-.23,1.8-.8,2.6-1.7ZM599.55,168.19l9.87,3.23c.27-1.29.2-2.34-.22-3.16-.64-1.27-1.72-2.16-3.24-2.66-1.38-.45-2.66-.44-3.85.02-1.19.46-2.04,1.32-2.56,2.57Z"/><path class="cls-3" d="M629.54,180.43l3.13.97c-.82,1.46-1.99,2.48-3.53,3.06-1.54.59-3.36.67-5.48.24-2.67-.54-4.64-1.65-5.93-3.33-1.29-1.68-1.68-3.76-1.19-6.24.51-2.56,1.7-4.39,3.57-5.48,1.86-1.1,4.05-1.39,6.57-.89,2.44.49,4.29,1.58,5.56,3.28,1.27,1.7,1.65,3.8,1.14,6.31-.03.15-.08.38-.16.68l-13.6-2.73c-.22,1.7.09,3.09.93,4.18.84,1.09,2.02,1.79,3.54,2.1,1.13.23,2.15.17,3.05-.16.9-.33,1.7-1,2.38-2ZM620.23,174.22l10.18,2.04c.12-1.31-.08-2.35-.59-3.11-.79-1.19-1.96-1.94-3.53-2.26-1.42-.29-2.69-.13-3.82.47-1.13.6-1.88,1.55-2.24,2.86Z"/><path class="cls-3" d="M637.89,186.73l1.78-15.42,2.82.33-.27,2.34c.84-1.01,1.59-1.66,2.24-1.93.65-.28,1.34-.38,2.07-.29,1.06.12,2.1.53,3.12,1.21l-1.36,2.3c-.72-.46-1.47-.74-2.23-.83-.68-.08-1.32.02-1.9.3-.58.28-1.03.71-1.33,1.3-.46.89-.75,1.88-.87,2.99l-.93,8.07-3.13-.36Z"/><path class="cls-3" d="M650.73,183.49l3.14-.24c.12,1.05.56,1.88,1.33,2.47.77.6,1.87.94,3.3,1.02,1.45.08,2.53-.11,3.26-.56s1.11-1.01,1.15-1.67c.03-.59-.25-1.08-.85-1.45-.42-.26-1.47-.61-3.17-1.07-2.28-.61-3.86-1.12-4.73-1.53-.87-.4-1.52-.93-1.95-1.59s-.62-1.36-.58-2.12c.04-.69.26-1.32.67-1.89s.96-1.03,1.63-1.38c.51-.27,1.19-.49,2.04-.66.86-.16,1.77-.22,2.74-.16,1.46.08,2.73.33,3.81.74,1.08.41,1.87.93,2.36,1.56.49.63.81,1.45.95,2.46l-3.1.18c-.1-.8-.47-1.45-1.11-1.93-.65-.48-1.58-.76-2.81-.83-1.45-.08-2.49.06-3.13.43-.64.37-.97.81-1,1.35-.02.34.09.65.33.94.24.3.63.55,1.17.77.31.11,1.22.39,2.74.83,2.2.62,3.73,1.11,4.59,1.48.86.37,1.53.86,2,1.49.47.63.68,1.39.63,2.29-.05.88-.4,1.68-1.06,2.42-.66.74-1.57,1.29-2.75,1.65-1.18.36-2.5.5-3.95.42-2.41-.13-4.23-.65-5.45-1.56-1.22-.91-1.96-2.19-2.21-3.86Z"/><path class="cls-3" d="M689.84,186.4l.53,2.31c-.88.18-1.67.29-2.37.31-1.14.04-2.04-.09-2.67-.37-.64-.28-1.1-.67-1.37-1.15-.27-.48-.43-1.51-.48-3.09l-.28-8.92-2.31.07-.06-2.05,2.31-.07-.12-3.84,3.08-1.68.17,5.42,3.17-.1.06,2.04-3.17.1.28,9.07c.02.75.09,1.23.21,1.44.12.21.3.38.56.49.25.12.62.17,1.08.16.35-.01.81-.06,1.38-.14Z"/><path class="cls-3" d="M693.02,180.92c-.25-2.86.53-5.07,2.32-6.61,1.5-1.28,3.39-2.02,5.68-2.22,2.55-.22,4.69.3,6.43,1.55,1.74,1.25,2.71,3.11,2.92,5.56.17,1.99-.05,3.59-.67,4.79-.62,1.2-1.58,2.18-2.9,2.92-1.31.75-2.78,1.19-4.39,1.33-2.59.22-4.75-.29-6.47-1.54-1.72-1.25-2.69-3.18-2.92-5.79ZM696.25,180.65c.17,1.98.81,3.42,1.94,4.31,1.12.9,2.46,1.28,4.04,1.14,1.56-.13,2.81-.74,3.76-1.82.95-1.08,1.34-2.63,1.16-4.66-.16-1.91-.81-3.32-1.93-4.21-1.13-.9-2.46-1.28-4.01-1.14-1.57.13-2.83.74-3.78,1.8-.95,1.07-1.34,2.59-1.17,4.58Z"/><path class="cls-3" d="M739.84,177.15l3.26-.33c-.18,1.66-.87,3.06-2.05,4.2s-2.83,1.93-4.95,2.37c-2.67.55-4.92.3-6.76-.75-1.84-1.04-3.02-2.8-3.53-5.28-.53-2.56-.15-4.7,1.14-6.44,1.29-1.74,3.19-2.87,5.7-3.39,2.44-.5,4.57-.22,6.4.84,1.83,1.07,3,2.85,3.52,5.36.03.15.07.38.12.69l-13.58,2.8c.46,1.65,1.29,2.81,2.49,3.48,1.2.68,2.56.86,4.08.54,1.13-.23,2.05-.68,2.75-1.34.7-.66,1.17-1.58,1.41-2.77ZM728.84,175.08l10.17-2.1c-.4-1.25-.99-2.13-1.76-2.63-1.19-.79-2.57-1.02-4.13-.7-1.42.29-2.53.93-3.33,1.93-.8.99-1.12,2.16-.95,3.51Z"/><path class="cls-3" d="M755,178.36l-11.18-12.88,3.19-.94,6.46,7.78c.7.84,1.37,1.73,2.03,2.66.04-.86.13-1.92.29-3.16l1.28-10.25,3.11-.92-2.36,16.88-2.82.83Z"/><path class="cls-3" d="M779.42,164.41l3.15-.9c.12,1.67-.31,3.16-1.27,4.5s-2.44,2.4-4.45,3.21c-2.52,1.01-4.79,1.17-6.79.47-2-.7-3.47-2.22-4.41-4.56-.97-2.42-.98-4.6-.03-6.54.96-1.94,2.63-3.39,5.01-4.35,2.31-.93,4.46-1.03,6.45-.31,1.99.72,3.46,2.27,4.42,4.65.06.14.14.36.25.66l-12.87,5.18c.75,1.54,1.77,2.53,3.07,2.99,1.3.45,2.67.39,4.11-.19,1.07-.43,1.89-1.03,2.46-1.81.57-.77.87-1.77.9-2.98ZM768.23,164.33l9.64-3.88c-.62-1.16-1.35-1.92-2.2-2.28-1.31-.56-2.71-.55-4.19.05-1.34.54-2.32,1.37-2.94,2.49-.61,1.12-.72,2.33-.31,3.62Z"/><path class="cls-3" d="M789.96,165.02l-7.1-13.8,2.52-1.3,1.08,2.09c.14-1.31.4-2.26.79-2.85.38-.59.9-1.06,1.56-1.39.94-.49,2.03-.73,3.27-.73l.15,2.67c-.86.01-1.63.2-2.32.55-.61.32-1.08.75-1.41,1.31-.33.56-.46,1.16-.38,1.82.12.99.43,1.98.94,2.97l3.72,7.22-2.8,1.44Z"/><path class="cls-3" d="M805.76,163.36l-1.63-1.89c.67-.24,1.21-.5,1.65-.78.59-.38,1.01-.76,1.26-1.15.25-.39.39-.81.43-1.25.03-.33-.06-1.05-.25-2.17-.03-.16-.07-.38-.11-.69l-14.34-9.27,2.86-1.83,8.11,5.47c1.04.69,2.06,1.45,3.08,2.3-.35-1.21-.62-2.44-.82-3.68l-1.54-9.76,2.65-1.7,2.57,17.1c.28,1.84.42,3.15.41,3.92,0,1.03-.2,1.92-.59,2.65-.39.73-1.01,1.37-1.85,1.91-.51.33-1.14.6-1.88.83Z"/><path class="cls-3" d="M828.87,141.99l2.66-1.57c.58.55,1.22.78,1.9.71.92-.09,1.91-.55,2.98-1.38,1.16-.89,1.9-1.77,2.23-2.64.33-.87.34-1.74.03-2.6-.2-.52-.83-1.46-1.88-2.81-.26,1.91-1.21,3.5-2.84,4.75-2.02,1.56-4.06,2.16-6.11,1.8-2.05-.36-3.73-1.4-5.05-3.1-.9-1.17-1.48-2.45-1.74-3.83-.26-1.38-.11-2.72.44-4s1.48-2.43,2.78-3.44c1.74-1.34,3.62-1.86,5.66-1.56l-1.14-1.48,2.3-1.78,8.19,10.62c1.48,1.91,2.29,3.45,2.44,4.61.15,1.16-.1,2.36-.76,3.6-.66,1.24-1.72,2.44-3.2,3.58-1.76,1.35-3.43,2.12-5.02,2.29-1.59.17-2.88-.42-3.87-1.77ZM825.24,133.01c1.24,1.61,2.53,2.49,3.87,2.64,1.34.15,2.58-.22,3.74-1.11,1.15-.88,1.82-1.99,2.03-3.33.21-1.33-.29-2.79-1.51-4.36-1.16-1.5-2.43-2.33-3.82-2.48-1.39-.15-2.65.21-3.78,1.08-1.11.86-1.76,1.96-1.96,3.31-.2,1.35.28,2.77,1.42,4.25Z"/><path class="cls-3" d="M839.75,122.06c-1.87-2.18-2.53-4.42-1.98-6.72.46-1.91,1.57-3.62,3.32-5.12,1.94-1.67,3.98-2.5,6.12-2.49,2.14,0,4.02.94,5.62,2.81,1.3,1.51,2.05,2.94,2.25,4.28.2,1.34-.01,2.69-.64,4.07-.63,1.37-1.56,2.59-2.79,3.65-1.98,1.7-4.03,2.54-6.15,2.53-2.13-.01-4.04-1.01-5.75-3ZM842.21,119.95c1.29,1.51,2.66,2.3,4.09,2.37,1.43.07,2.75-.4,3.94-1.43,1.19-1.02,1.85-2.25,1.99-3.67.14-1.43-.45-2.92-1.78-4.46-1.25-1.46-2.59-2.22-4.03-2.29-1.44-.07-2.74.4-3.92,1.41-1.2,1.03-1.87,2.25-2.02,3.68s.43,2.89,1.72,4.4Z"/><path class="cls-3" d="M869.56,102.79c-.25,1.41-.63,2.62-1.16,3.62-.53,1-1.23,1.94-2.11,2.81-1.45,1.44-2.86,2.25-4.23,2.43-1.37.18-2.5-.19-3.42-1.11-.54-.54-.88-1.18-1.02-1.92-.15-.74-.12-1.48.09-2.22.21-.74.54-1.48,1-2.21.34-.53.91-1.28,1.71-2.25,1.63-1.97,2.75-3.5,3.36-4.6-.25-.26-.4-.43-.47-.5-.75-.76-1.5-1.09-2.23-.98-.99.14-2.05.78-3.18,1.89-1.05,1.04-1.68,1.97-1.88,2.77-.2.81-.03,1.72.51,2.74l-2.44,1.92c-.58-.98-.87-1.94-.89-2.87-.02-.93.27-1.96.88-3.07s1.48-2.23,2.61-3.36c1.13-1.12,2.16-1.92,3.08-2.39.92-.48,1.72-.71,2.38-.7.66,0,1.32.2,1.96.58.39.24,1,.78,1.82,1.61l2.47,2.49c1.72,1.74,2.86,2.79,3.41,3.15.55.37,1.18.62,1.88.76l-2.34,2.32c-.62-.16-1.21-.46-1.79-.92ZM865.24,98.81c-.54,1.08-1.52,2.53-2.96,4.33-.81,1.02-1.34,1.79-1.58,2.31-.24.52-.34,1.01-.28,1.48.06.47.25.87.57,1.2.49.5,1.13.69,1.91.57.78-.12,1.61-.6,2.48-1.47.86-.85,1.47-1.77,1.83-2.75.36-.98.43-1.9.2-2.76-.18-.66-.67-1.4-1.49-2.23l-.68-.68Z"/><path class="cls-3" d="M877.67,96.77l-16.31-13.89,2.04-2.4,16.31,13.89-2.04,2.4Z"/><path class="cls-3" d="M28.64,119.61l-19.12-11.26,9.66-16.39,2.26,1.33-7.76,13.17,5.92,3.49,6.72-11.4,2.26,1.33-6.72,11.4,8.69,5.12-1.89,3.21Z"/><path class="cls-3" d="M26.91,87.53l-2.42-1.99,2.19-2.68,2.42,1.99-2.19,2.68ZM41.65,99.61l-12.44-10.19,2.19-2.68,12.44,10.19-2.19,2.68Z"/><path class="cls-3" d="M47.55,92.37l-11.08-11.65,2.26-2.15,1.58,1.66c-.13-2.31.83-4.45,2.88-6.4.89-.85,1.83-1.5,2.82-1.96.99-.46,1.86-.66,2.62-.61.76.06,1.48.29,2.17.72.44.28,1.1.87,1.97,1.79l6.81,7.16-2.51,2.39-6.74-7.08c-.77-.8-1.44-1.31-2.01-1.53-.57-.21-1.22-.2-1.95.03-.72.24-1.42.67-2.09,1.31-1.07,1.02-1.74,2.16-2.01,3.43s.31,2.65,1.73,4.14l6.05,6.36-2.51,2.39Z"/><path class="cls-3" d="M74.92,69.6l-1.17-1.66c-.13,2.05-1.23,3.8-3.28,5.25-1.33.94-2.75,1.52-4.28,1.73-1.52.21-2.96.02-4.3-.58-1.34-.6-2.49-1.57-3.44-2.91-.93-1.31-1.49-2.69-1.69-4.15-.2-1.46.05-2.87.76-4.22.71-1.35,1.75-2.52,3.12-3.49,1-.71,2.02-1.18,3.04-1.4s1.97-.24,2.84-.05l-4.6-6.5,2.81-1.99,12.83,18.11-2.62,1.86ZM61.35,69.39c1.19,1.68,2.53,2.62,4.02,2.81,1.49.19,2.85-.14,4.07-1.01,1.23-.88,2-2.02,2.3-3.42s-.13-2.92-1.28-4.55c-1.27-1.79-2.65-2.8-4.12-3.02-1.47-.22-2.86.13-4.14,1.04-1.26.89-2.02,2.04-2.29,3.44-.27,1.4.21,2.97,1.44,4.71Z"/><path class="cls-3" d="M95.69,64.42l-1.45-2.14c.75-.18,1.38-.4,1.89-.64.69-.33,1.2-.69,1.53-1.07s.55-.8.66-1.26c.08-.34.1-1.1.08-2.29,0-.16-.01-.41-.01-.73l-13.97-11.16,3.36-1.62,7.86,6.55c1.01.83,1.99,1.73,2.95,2.71-.18-1.3-.29-2.61-.3-3.92l-.12-10.34,3.12-1.5.08,18.1c.01,1.95-.04,3.33-.17,4.13-.17,1.08-.51,1.97-1.05,2.7-.54.72-1.3,1.32-2.29,1.8-.6.29-1.32.51-2.16.67Z"/><path class="cls-3" d="M107.69,43.03c-1.04-2.79-.83-5.22.64-7.3,1.23-1.73,3.03-3.04,5.39-3.92,2.63-.98,5.03-1.11,7.21-.37,2.18.73,3.71,2.29,4.6,4.69.72,1.94.92,3.6.6,4.99s-1.08,2.65-2.26,3.79-2.61,2.02-4.28,2.65c-2.68,1-5.1,1.13-7.25.4-2.16-.73-3.71-2.37-4.66-4.92ZM111.02,41.79c.72,1.93,1.79,3.17,3.22,3.73,1.43.56,2.95.54,4.57-.07,1.61-.6,2.77-1.58,3.48-2.95.71-1.36.69-3.03-.04-5.01-.7-1.86-1.76-3.07-3.19-3.63-1.43-.56-2.95-.54-4.55.06-1.62.61-2.79,1.58-3.5,2.94-.71,1.35-.71,3,.01,4.92Z"/><path class="cls-3" d="M145.96,38.87l-.63-2.28c-1.05,2.17-2.89,3.62-5.52,4.35-1.16.32-2.3.45-3.4.37-1.1-.07-1.97-.3-2.61-.7s-1.16-.95-1.57-1.66c-.28-.48-.57-1.28-.88-2.4l-2.65-9.6,3.34-.92,2.37,8.59c.38,1.37.7,2.28.97,2.72.4.63,1,1.05,1.78,1.26.79.21,1.68.17,2.69-.11,1-.28,1.88-.74,2.65-1.38.77-.65,1.23-1.37,1.41-2.16.17-.8.08-1.86-.29-3.18l-2.29-8.3,3.34-.92,4.28,15.5-2.99.83Z"/><path class="cls-3" d="M154.96,36.79l-2.75-15.84,3.07-.53.42,2.4c.59-1.26,1.18-2.13,1.79-2.6.6-.47,1.3-.78,2.1-.92,1.15-.2,2.37-.11,3.66.26l-.74,2.69c-.9-.24-1.77-.29-2.6-.15-.75.13-1.38.42-1.92.88-.53.46-.87,1.02-1.02,1.69-.21,1.02-.22,2.1-.02,3.23l1.44,8.29-3.41.59Z"/><path class="cls-3" d="M179.06,28.61l3.39-.65c.26,1.07.85,1.85,1.77,2.37.92.52,2.16.72,3.73.62,1.59-.11,2.75-.44,3.48-1,.73-.56,1.08-1.18,1.03-1.87-.04-.61-.41-1.07-1.11-1.38-.49-.21-1.69-.44-3.59-.69-2.57-.34-4.35-.66-5.36-.96-1-.3-1.78-.76-2.33-1.38s-.85-1.32-.9-2.1c-.05-.72.12-1.39.49-2.03.38-.64.91-1.18,1.6-1.63.52-.35,1.23-.66,2.15-.94.91-.28,1.9-.45,2.96-.52,1.6-.11,3.01-.02,4.25.26,1.23.28,2.16.71,2.77,1.29.62.58,1.07,1.38,1.36,2.41l-3.35.59c-.21-.81-.7-1.43-1.46-1.84-.77-.41-1.82-.58-3.16-.49-1.59.11-2.71.39-3.36.84s-.96.96-.92,1.52c.02.35.19.66.49.92.3.27.76.49,1.37.64.35.08,1.38.24,3.1.49,2.48.35,4.21.66,5.2.92.99.26,1.78.69,2.37,1.28.59.59.92,1.34.98,2.27.06.91-.22,1.78-.84,2.63-.62.85-1.55,1.53-2.78,2.05-1.24.52-2.66.84-4.26.94-2.65.17-4.7-.12-6.14-.9-1.45-.77-2.42-2-2.91-3.68Z"/><path class="cls-3" d="M199.99,24.07c-.05-2.98.97-5.2,3.05-6.67,1.74-1.22,3.87-1.85,6.4-1.89,2.81-.05,5.11.64,6.92,2.06,1.8,1.42,2.73,3.41,2.77,5.96.03,2.07-.33,3.7-1.1,4.9-.77,1.2-1.9,2.14-3.4,2.82-1.5.68-3.13,1.04-4.92,1.06-2.86.05-5.18-.64-6.97-2.05-1.79-1.41-2.7-3.48-2.75-6.19ZM203.55,24.01c.03,2.06.63,3.59,1.79,4.6,1.16,1,2.6,1.49,4.33,1.47,1.72-.03,3.14-.57,4.26-1.61,1.12-1.05,1.67-2.62,1.64-4.73-.03-1.99-.63-3.48-1.79-4.49-1.16-1-2.6-1.49-4.3-1.47-1.73.03-3.16.56-4.28,1.6-1.12,1.04-1.67,2.59-1.64,4.64Z"/><path class="cls-3" d="M237.84,26.38l3.39.45c-.43,1.83-1.42,3.25-2.98,4.25-1.56,1-3.46,1.46-5.69,1.4-2.79-.08-5.02-.87-6.67-2.36-1.66-1.49-2.44-3.57-2.37-6.26.05-1.74.46-3.24,1.23-4.52.77-1.28,1.91-2.22,3.42-2.83,1.51-.61,3.15-.88,4.9-.83,2.22.07,4.02.56,5.4,1.48,1.38.92,2.25,2.21,2.6,3.84l-3.38.31c-.29-1.09-.83-1.92-1.63-2.49-.8-.57-1.77-.87-2.93-.9-1.74-.05-3.17.4-4.29,1.35-1.12.95-1.71,2.49-1.77,4.62-.06,2.16.42,3.74,1.44,4.75,1.02,1.01,2.38,1.54,4.07,1.59,1.36.04,2.5-.25,3.43-.88.93-.63,1.54-1.62,1.82-2.97Z"/><path class="cls-3" d="M258.76,27.79l3.37.61c-.52,1.81-1.58,3.18-3.19,4.1-1.61.92-3.53,1.29-5.75,1.12-2.79-.22-4.97-1.11-6.55-2.68-1.58-1.57-2.27-3.69-2.06-6.36.13-1.73.62-3.22,1.45-4.46s2.02-2.13,3.56-2.66c1.54-.53,3.19-.73,4.94-.59,2.21.17,3.99.75,5.32,1.74,1.34.99,2.14,2.31,2.41,3.96l-3.39.14c-.24-1.1-.74-1.96-1.51-2.56-.77-.61-1.73-.96-2.88-1.04-1.74-.14-3.19.24-4.35,1.14-1.16.9-1.83,2.41-1.99,4.53-.17,2.15.23,3.76,1.2,4.82.97,1.06,2.3,1.65,3.99,1.79,1.36.11,2.51-.13,3.47-.71.96-.58,1.61-1.54,1.96-2.88Z"/><path class="cls-3" d="M280.13,31.31l3.49.88c-.8,1.54-2.03,2.65-3.67,3.32-1.64.67-3.64.83-5.99.47-2.95-.45-5.19-1.52-6.7-3.21-1.51-1.69-2.08-3.83-1.69-6.42.4-2.67,1.59-4.62,3.56-5.83,1.97-1.21,4.35-1.61,7.14-1.19,2.7.41,4.8,1.46,6.29,3.17,1.49,1.71,2.04,3.87,1.65,6.5-.02.16-.07.4-.13.71l-15.06-2.27c-.14,1.76.29,3.2,1.28,4.3.99,1.1,2.33,1.77,4.01,2.03,1.26.19,2.37.09,3.33-.29.97-.38,1.79-1.11,2.49-2.17ZM269.55,25.26l11.28,1.7c.05-1.36-.23-2.43-.84-3.2-.93-1.2-2.27-1.93-4.01-2.2-1.57-.24-2.96-.02-4.15.64-1.2.67-1.96,1.68-2.28,3.05Z"/><path class="cls-3" d="M287.73,38.16l4.12-15.54,3.01.8-.63,2.36c1.06-.9,1.96-1.44,2.71-1.62.74-.18,1.51-.16,2.29.04,1.13.3,2.2.89,3.21,1.76l-1.8,2.14c-.72-.6-1.48-1-2.3-1.22-.73-.19-1.43-.19-2.11,0-.68.19-1.22.56-1.63,1.11-.62.84-1.08,1.81-1.37,2.92l-2.16,8.13-3.35-.89Z"/><path class="cls-3" d="M315.13,47.24l-2.92-1.34,9.29-20.15,3.14,1.45-3.31,7.19c1.93-.7,3.93-.57,5.99.38,1.14.53,2.14,1.2,2.99,2.04.85.83,1.46,1.73,1.81,2.69s.51,1.99.45,3.08c-.05,1.1-.32,2.17-.81,3.23-1.15,2.5-2.83,4.07-5.03,4.71-2.2.64-4.4.46-6.6-.56-2.19-1.01-3.58-2.52-4.16-4.53l-.84,1.83ZM318.51,39.81c-.81,1.75-1.09,3.16-.84,4.21.4,1.73,1.45,2.98,3.14,3.76,1.38.63,2.78.71,4.21.23,1.43-.48,2.58-1.65,3.44-3.51.88-1.91,1.04-3.53.5-4.88-.54-1.35-1.5-2.34-2.86-2.97-1.38-.63-2.78-.71-4.21-.23-1.44.48-2.56,1.61-3.38,3.38Z"/><path class="cls-3" d="M344.78,61.12c-1.54.04-2.91-.11-4.1-.45s-2.36-.87-3.51-1.6c-1.89-1.2-3.12-2.49-3.67-3.87-.55-1.38-.47-2.63.25-3.76.42-.66,1-1.15,1.73-1.45.73-.31,1.52-.43,2.35-.36.83.06,1.69.26,2.58.58.65.25,1.59.68,2.82,1.31,2.5,1.28,4.41,2.12,5.71,2.52.21-.31.34-.5.4-.59.6-.94.74-1.77.43-2.51-.42-.99-1.36-1.96-2.83-2.89-1.37-.87-2.51-1.33-3.41-1.37s-1.81.33-2.73,1.09l-2.66-2.12c.87-.8,1.79-1.3,2.76-1.52.97-.21,2.12-.12,3.45.27,1.33.4,2.73,1.06,4.22,2.01,1.47.94,2.58,1.83,3.33,2.69.75.86,1.21,1.63,1.38,2.32.17.69.14,1.4-.08,2.14-.15.45-.55,1.19-1.2,2.21l-1.95,3.07c-1.36,2.14-2.16,3.53-2.39,4.17s-.33,1.34-.3,2.1l-3.05-1.94c0-.67.16-1.35.48-2.04ZM347.8,55.83c-1.28-.33-3.05-1.05-5.33-2.17-1.29-.63-2.23-1.01-2.84-1.16-.61-.15-1.15-.14-1.63.01-.48.16-.85.43-1.1.83-.39.61-.42,1.31-.09,2.1.33.78,1.06,1.54,2.2,2.26,1.13.71,2.25,1.16,3.37,1.33s2.1.05,2.94-.36c.64-.32,1.29-.99,1.93-2l.54-.84Z"/><path class="cls-3" d="M351.19,68.2l10.03-12.57,2.44,1.94-1.52,1.91c1.33-.4,2.38-.53,3.13-.39.75.14,1.44.46,2.08.96.91.73,1.66,1.7,2.23,2.91l-2.51,1.23c-.42-.84-.96-1.52-1.62-2.05-.59-.47-1.24-.75-1.93-.85-.7-.1-1.34.03-1.94.36-.91.52-1.72,1.23-2.43,2.13l-5.25,6.58-2.71-2.16Z"/></svg>