<?xml version="1.0" encoding="UTF-8"?>
<svg id="Layer_4" data-name="Layer 4" xmlns="http://www.w3.org/2000/svg" viewBox="0 0 1083.73 220.74">
  <text/>
  <text/>
  <text/>
  <text/>
  <text transform="translate(689.96 158.35) rotate(37.01) scale(1.2 1)" fill="#fff" font-family="ArialMT, Arial" font-size="29.93"><tspan x="0" y="0">C</tspan></text>
  <text transform="translate(713.51 175.77) rotate(27.48) scale(1.2 1)" fill="#fff" font-family="ArialMT, Arial" font-size="29.93"><tspan x="0" y="0">h</tspan></text>
  <text transform="translate(734.37 186.1) rotate(18.09) scale(1.2 1)" fill="#fff" font-family="ArialMT, Arial" font-size="29.93"><tspan x="0" y="0">e</tspan></text>
  <text transform="translate(755.96 192.95) rotate(11.36) scale(1.2 1)" fill="#fff" font-family="ArialMT, Arial" font-size="29.93"><tspan x="0" y="0">e</tspan></text>
  <text transform="translate(777.78 197.05) rotate(6.58) scale(1.2 1)" fill="#fff" font-family="ArialMT, Arial" font-size="29.93"><tspan x="0" y="0">r</tspan></text>
  <text transform="translate(791.57 198.64) rotate(3.18) scale(1.2 1)" fill="#fff" font-family="ArialMT, Arial" font-size="29.93"><tspan x="0" y="0">s</tspan></text>
  <text transform="translate(811.27 199.6) rotate(.32) scale(1.2 1)" fill="#fff" font-family="ArialMT, Arial" font-size="29.93"><tspan x="0" y="0"> </tspan></text>
  <text transform="translate(822.87 199.63) rotate(-1.79) scale(1.2 1)" fill="#fff" font-family="ArialMT, Arial" font-size="29.93"><tspan x="0" y="0">t</tspan></text>
  <text transform="translate(834.7 199.35) rotate(-4.91) scale(1.2 1)" fill="#fff" font-family="ArialMT, Arial" font-size="29.93"><tspan x="0" y="0">o</tspan></text>
  <text transform="translate(856.47 197.29) rotate(-8.18) scale(1.2 1)" fill="#fff" font-family="ArialMT, Arial" font-size="29.93"><tspan x="0" y="0"> </tspan></text>
  <text transform="translate(868.27 195.69) rotate(-11.67) scale(1.2 1)" fill="#fff" font-family="ArialMT, Arial" font-size="29.93"><tspan x="0" y="0">e</tspan></text>
  <text transform="translate(889.98 191.08) rotate(-16.46) scale(1.2 1)" fill="#fff" font-family="ArialMT, Arial" font-size="29.93"><tspan x="0" y="0">v</tspan></text>
  <text transform="translate(909.48 185.27) rotate(-21.92) scale(1.2 1)" fill="#fff" font-family="ArialMT, Arial" font-size="29.93"><tspan x="0" y="0">e</tspan></text>
  <text transform="translate(930.09 176.68) rotate(-27.24) scale(1.2 1)" fill="#fff" font-family="ArialMT, Arial" font-size="29.93"><tspan x="0" y="0">r</tspan></text>
  <text transform="translate(942.86 170.13) rotate(-32.69) scale(1.2 1)" fill="#fff" font-family="ArialMT, Arial" font-size="29.93"><tspan x="0" y="0">y</tspan></text>
  <text transform="translate(959.37 159.34) rotate(-35.41) scale(1.2 1)" fill="#fff" font-family="ArialMT, Arial" font-size="29.93"><tspan x="0" y="0"> </tspan></text>
  <text transform="translate(968.87 152.65) rotate(-37.64) scale(1.2 1)" fill="#fff" font-family="ArialMT, Arial" font-size="29.93"><tspan x="0" y="0">g</tspan></text>
  <text transform="translate(986.11 139.32) rotate(-40.65) scale(1.2 1)" fill="#fff" font-family="ArialMT, Arial" font-size="29.93"><tspan x="0" y="0">o</tspan></text>
  <text transform="translate(1002.81 124.95) rotate(-44.73) scale(1.2 1)" fill="#fff" font-family="ArialMT, Arial" font-size="29.93"><tspan x="0" y="0">a</tspan></text>
  <text transform="translate(1018.39 109.11) rotate(-49.59) scale(1.2 1)" fill="#fff" font-family="ArialMT, Arial" font-size="29.93"><tspan x="0" y="0">l</tspan></text>
  <text transform="translate(1025.04 101.2) rotate(-54.78) scale(1.2 1)" fill="#fff" font-family="MyriadPro-Regular, &apos;Myriad Pro&apos;" font-size="32.11"><tspan x="0" y="0"> </tspan></text>
  <text transform="translate(49.46 125.61) rotate(-59.49) scale(1.27 1)" fill="#fff" font-family="ArialMT, Arial" font-size="31"><tspan x="0" y="0">F</tspan></text>
  <text transform="translate(62.46 104.85) rotate(-50.68) scale(1.27 1)" fill="#fff" font-family="ArialMT, Arial" font-size="31"><tspan x="0" y="0">i</tspan></text>
  <text transform="translate(68.14 97.37) rotate(-43.57) scale(1.27 1)" fill="#fff" font-family="ArialMT, Arial" font-size="31"><tspan x="0" y="0">n</tspan></text>
  <text transform="translate(84.45 81.98) rotate(-35.32) scale(1.27 1)" fill="#fff" font-family="ArialMT, Arial" font-size="31"><tspan x="0" y="0">d</tspan></text>
  <text transform="translate(103.12 69.13) rotate(-30.05) scale(1.27 1)" fill="#fff" font-family="ArialMT, Arial" font-size="31"><tspan x="0" y="0"> </tspan></text>
  <text transform="translate(113.28 63.11) rotate(-25.68) scale(1.27 1)" fill="#fff" font-family="ArialMT, Arial" font-size="31"><tspan x="0" y="0">y</tspan></text>
  <text transform="translate(131.74 54.24) rotate(-20.48) scale(1.27 1)" fill="#fff" font-family="ArialMT, Arial" font-size="31"><tspan x="0" y="0">o</tspan></text>
  <text transform="translate(153.02 46.34) rotate(-15.44) scale(1.27 1)" fill="#fff" font-family="ArialMT, Arial" font-size="31"><tspan x="0" y="0">u</tspan></text>
  <text transform="translate(174.91 40.45) rotate(-9.84) scale(1.27 1)" fill="#fff" font-family="ArialMT, Arial" font-size="31"><tspan x="0" y="0">r</tspan></text>
  <text transform="translate(188.78 38.13) rotate(-6.59) scale(1.27 1)" fill="#fff" font-family="ArialMT, Arial" font-size="31"><tspan x="0" y="0"> </tspan></text>
  <text transform="translate(200.64 36.69) rotate(-3.8) scale(1.27 1)" fill="#fff" font-family="ArialMT, Arial" font-size="31"><tspan x="0" y="0">s</tspan></text>
  <text transform="translate(221.28 35.34) rotate(-.93) scale(1.27 1)" fill="#fff" font-family="ArialMT, Arial" font-size="31"><tspan x="0" y="0">o</tspan></text>
  <text transform="translate(244.21 35.01) rotate(1.69) scale(1.27 1)" fill="#fff" font-family="ArialMT, Arial" font-size="31"><tspan x="0" y="0">c</tspan></text>
  <text transform="translate(264.89 35.63) rotate(4.47) scale(1.27 1)" fill="#fff" font-family="ArialMT, Arial" font-size="31"><tspan x="0" y="0">c</tspan></text>
  <text transform="translate(285.43 37.17) rotate(8.59) scale(1.27 1)" fill="#fff" font-family="ArialMT, Arial" font-size="31"><tspan x="0" y="0">e</tspan></text>
  <text transform="translate(307.72 40.72) rotate(14.86) scale(1.27 1)" fill="#fff" font-family="ArialMT, Arial" font-size="31"><tspan x="0" y="0">r</tspan></text>
  <text transform="translate(321.2 44.41) rotate(19.16) scale(1.27 1)" fill="#fff" font-family="ArialMT, Arial" font-size="31"><tspan x="0" y="0"> </tspan></text>
  <text transform="translate(332.34 48.03) rotate(24.74) scale(1.27 1)" fill="#fff" font-family="ArialMT, Arial" font-size="31"><tspan x="0" y="0">b</tspan></text>
  <text transform="translate(352.74 57.46) rotate(32.44) scale(1.27 1)" fill="#fff" font-family="ArialMT, Arial" font-size="31"><tspan x="0" y="0">a</tspan></text>
  <text transform="translate(371.66 69.82) rotate(38.58) scale(1.27 1)" fill="#fff" font-family="ArialMT, Arial" font-size="31"><tspan x="0" y="0">r</tspan></text>
</svg>