<?xml version="1.0" encoding="UTF-8"?><svg id="Layer_4" xmlns="http://www.w3.org/2000/svg" xmlns:xlink="http://www.w3.org/1999/xlink" viewBox="0 0 900.69 209.58"><defs><style>.cls-1{fill:#fff;stroke-width:0px;}</style></defs><path class="cls-1" d="M552.39,152.8l2.21,2.54c-1.91,1.38-3.94,2-6.08,1.87-2.15-.14-4.25-.99-6.32-2.55-2.14-1.62-3.6-3.3-4.39-5.04-.79-1.74-1.01-3.56-.67-5.47.34-1.91,1.11-3.65,2.31-5.23,1.31-1.72,2.84-2.93,4.6-3.61,1.76-.69,3.62-.81,5.58-.37,1.96.44,3.82,1.32,5.57,2.64,1.98,1.5,3.33,3.19,4.05,5.05.71,1.87.76,3.77.14,5.7l-2.97-1.45c.45-1.55.45-2.93-.01-4.15-.46-1.21-1.35-2.32-2.68-3.32-1.52-1.15-3.03-1.81-4.51-1.98-1.49-.17-2.82.11-4.02.82-1.19.71-2.2,1.62-3.03,2.71-1.07,1.41-1.75,2.82-2.05,4.24-.3,1.42-.13,2.79.51,4.09.64,1.3,1.57,2.42,2.78,3.33,1.47,1.11,2.98,1.7,4.54,1.77,1.55.07,3.04-.46,4.45-1.58Z"/><path class="cls-1" d="M556.37,164.21l9.8-18.3,2.69,1.44-3.52,6.57c1.91-.54,3.82-.3,5.73.73,1.18.63,2.09,1.37,2.75,2.22.66.85,1,1.72,1,2.6s-.33,1.97-1.03,3.27l-4.5,8.4-2.69-1.44,4.5-8.4c.6-1.12.75-2.1.44-2.92-.31-.83-1-1.52-2.07-2.09-.8-.43-1.64-.66-2.53-.69-.89-.03-1.64.17-2.26.6-.62.43-1.2,1.17-1.76,2.21l-3.88,7.25-2.69-1.44Z"/><path class="cls-1" d="M589.82,173.52l2.88,1.33c-.97,1.3-2.23,2.13-3.77,2.5-1.55.37-3.31.22-5.29-.46-2.5-.85-4.26-2.17-5.28-3.94-1.03-1.78-1.14-3.83-.36-6.14.82-2.39,2.19-4,4.12-4.82,1.93-.82,4.07-.83,6.43-.02,2.28.78,3.92,2.06,4.93,3.85,1,1.79,1.11,3.86.31,6.21-.05.14-.13.36-.24.64l-12.72-4.33c-.42,1.6-.3,2.98.37,4.13.67,1.16,1.72,1.98,3.14,2.46,1.06.36,2.04.44,2.95.23s1.75-.75,2.54-1.62ZM581.66,166.38l9.53,3.25c.28-1.24.22-2.26-.17-3.07-.6-1.24-1.64-2.12-3.11-2.62-1.33-.45-2.57-.46-3.73-.03-1.16.43-2,1.25-2.52,2.46Z"/><path class="cls-1" d="M610.53,178.63l3.02.98c-.81,1.4-1.96,2.37-3.46,2.92-1.5.55-3.27.6-5.31.16-2.58-.56-4.48-1.66-5.7-3.31s-1.58-3.67-1.06-6.06c.53-2.47,1.71-4.23,3.53-5.26,1.82-1.04,3.95-1.29,6.38-.77,2.36.51,4.14,1.59,5.34,3.25,1.2,1.66,1.54,3.7,1.02,6.13-.03.15-.08.37-.16.66l-13.14-2.84c-.24,1.64.04,2.99.84,4.06.8,1.07,1.93,1.76,3.41,2.08,1.09.24,2.08.2,2.96-.11.88-.31,1.66-.95,2.34-1.9ZM601.6,172.49l9.84,2.12c.13-1.27-.04-2.27-.53-3.03-.74-1.17-1.87-1.91-3.39-2.24-1.37-.3-2.61-.16-3.71.4-1.1.56-1.84,1.48-2.21,2.74Z"/><path class="cls-1" d="M618.51,184.86l1.96-14.91,2.73.36-.3,2.26c.83-.97,1.57-1.58,2.2-1.84.63-.26,1.3-.34,2.01-.25,1.02.13,2.02.54,3.01,1.22l-1.35,2.21c-.69-.46-1.41-.74-2.15-.84-.66-.09-1.28,0-1.85.26-.57.26-1.01.67-1.31,1.23-.46.85-.75,1.82-.89,2.88l-1.02,7.81-3.03-.4Z"/><path class="cls-1" d="M630.74,181.81l3.04-.13c.08,1.02.48,1.83,1.21,2.44.72.6,1.78.97,3.17,1.09,1.4.12,2.46-.02,3.17-.44.72-.42,1.1-.94,1.16-1.58.05-.57-.21-1.05-.78-1.43-.4-.26-1.41-.64-3.03-1.13-2.19-.67-3.7-1.21-4.53-1.63-.83-.42-1.44-.95-1.84-1.6-.39-.64-.56-1.33-.49-2.07.06-.67.3-1.27.71-1.81.42-.54.96-.96,1.62-1.29.5-.25,1.17-.44,2-.57.83-.13,1.72-.16,2.66-.07,1.41.12,2.63.4,3.67.83,1.04.43,1.78.96,2.24,1.58s.74,1.43.84,2.41l-3,.08c-.07-.78-.41-1.42-1.02-1.91s-1.51-.79-2.69-.89c-1.4-.12-2.41-.02-3.04.32-.63.33-.97.76-1.01,1.28-.03.33.07.64.29.92.22.3.59.55,1.11.78.3.12,1.17.42,2.63.88,2.11.67,3.58,1.19,4.4,1.57s1.45.88,1.89,1.51.61,1.37.54,2.24c-.08.85-.44,1.62-1.1,2.31-.66.69-1.56,1.2-2.71,1.51-1.15.31-2.43.41-3.84.28-2.33-.2-4.08-.76-5.23-1.68s-1.83-2.18-2.03-3.8Z"/><path class="cls-1" d="M667.34,186.65l.33,2.27c-.87.11-1.64.14-2.32.11-1.11-.06-1.96-.25-2.55-.57-.6-.32-1.01-.73-1.23-1.22-.23-.49-.3-1.5-.22-3.02l.44-8.64-2.24-.11.1-1.98,2.24.11.19-3.72,3.11-1.38-.26,5.25,3.07.16-.1,1.98-3.07-.16-.44,8.78c-.04.73,0,1.2.09,1.41.1.21.26.39.5.52.24.13.58.21,1.03.24.34.02.79,0,1.34-.03Z"/><path class="cls-1" d="M670.43,181.6c.05-2.78,1.02-4.83,2.9-6.13,1.57-1.08,3.47-1.6,5.7-1.56,2.48.05,4.49.76,6.04,2.15,1.55,1.38,2.29,3.27,2.25,5.66-.04,1.94-.42,3.45-1.13,4.54-.72,1.1-1.75,1.94-3.09,2.53-1.34.59-2.8.87-4.37.83-2.52-.05-4.55-.76-6.08-2.14-1.53-1.38-2.27-3.34-2.22-5.88ZM673.57,181.66c-.04,1.92.44,3.38,1.43,4.35s2.25,1.48,3.77,1.51c1.52.03,2.79-.43,3.81-1.37,1.02-.94,1.56-2.4,1.6-4.37.04-1.86-.44-3.28-1.44-4.26-.99-.98-2.24-1.48-3.75-1.51-1.53-.03-2.8.42-3.83,1.36-1.03.93-1.56,2.36-1.59,4.29Z"/><path class="cls-1" d="M715.71,183.45l3.17.12c-.39,1.57-1.23,2.82-2.52,3.76-1.29.94-2.97,1.47-5.06,1.61-2.63.17-4.76-.36-6.39-1.61s-2.53-3.09-2.69-5.53c-.17-2.52.48-4.54,1.95-6.03,1.46-1.5,3.44-2.33,5.92-2.49,2.41-.16,4.42.39,6.03,1.66,1.62,1.26,2.51,3.14,2.67,5.61,0,.15.02.38.03.68l-13.41.89c.22,1.64.87,2.87,1.93,3.67,1.06.81,2.35,1.16,3.85,1.06,1.12-.08,2.06-.38,2.81-.93.76-.54,1.33-1.37,1.72-2.47ZM705.43,180l10.04-.67c-.22-1.25-.67-2.17-1.34-2.76-1.04-.92-2.33-1.32-3.87-1.22-1.4.09-2.55.56-3.45,1.41-.9.85-1.36,1.93-1.37,3.24Z"/><path class="cls-1" d="M730,186.72l-8.9-13.93,3.19-.45,5.09,8.37c.55.9,1.07,1.85,1.57,2.84.16-.82.4-1.82.72-2.99l2.68-9.65,3.11-.44-4.65,15.84-2.82.4Z"/><path class="cls-1" d="M755.38,176.82l3.14-.42c-.12,1.61-.74,2.99-1.85,4.13s-2.68,1.96-4.72,2.45c-2.56.62-4.75.45-6.57-.51-1.82-.95-3.01-2.62-3.59-5-.59-2.46-.29-4.55.9-6.27,1.19-1.72,3-2.88,5.42-3.46,2.34-.57,4.42-.36,6.22.61,1.81.97,3,2.67,3.58,5.08.04.15.08.37.14.67l-13.07,3.15c.5,1.58,1.34,2.68,2.52,3.29s2.51.75,3.97.4c1.09-.26,1.96-.73,2.62-1.39.66-.66,1.08-1.57,1.28-2.73ZM744.66,175.17l9.78-2.36c-.43-1.2-1.02-2.03-1.79-2.5-1.18-.73-2.52-.91-4.02-.55-1.36.33-2.42.99-3.17,1.97-.75.99-1.01,2.13-.81,3.43Z"/><path class="cls-1" d="M765.51,178.82l-5.03-14.17,2.59-.92.76,2.15c.3-1.24.68-2.12,1.13-2.64.45-.52,1.01-.9,1.68-1.14.97-.34,2.05-.43,3.23-.28l-.2,2.58c-.83-.1-1.59-.02-2.3.23-.63.22-1.14.58-1.53,1.08-.39.49-.59,1.06-.61,1.69-.02.97.15,1.96.51,2.97l2.63,7.42-2.88,1.02Z"/><path class="cls-1" d="M781.33,179.08l-1.37-1.99c.67-.16,1.22-.35,1.67-.58.61-.3,1.05-.63,1.33-.98.28-.35.46-.74.54-1.16.06-.31.05-1.02,0-2.11-.01-.15-.02-.38-.04-.68l-12.84-10.44,2.95-1.47,7.24,6.12c.93.77,1.83,1.62,2.72,2.54-.21-1.2-.34-2.41-.4-3.63l-.46-9.56,2.73-1.36.68,16.75c.08,1.81.07,3.08-.01,3.82-.11.99-.39,1.82-.85,2.49s-1.12,1.21-1.99,1.65c-.53.26-1.16.46-1.9.6Z"/><path class="cls-1" d="M806.55,158.76l2.55-1.56c.57.52,1.19.74,1.85.66.89-.1,1.84-.56,2.87-1.38,1.11-.88,1.81-1.75,2.12-2.59.31-.85.3-1.69-.01-2.52-.2-.5-.82-1.4-1.86-2.7-.23,1.86-1.12,3.41-2.68,4.65-1.94,1.54-3.9,2.15-5.9,1.83-1.99-.32-3.64-1.3-4.93-2.93-.89-1.12-1.48-2.35-1.74-3.69-.27-1.34-.15-2.63.37-3.89s1.39-2.38,2.64-3.37c1.66-1.32,3.48-1.86,5.46-1.59l-1.13-1.42,2.21-1.75,8.09,10.17c1.46,1.83,2.27,3.31,2.43,4.43.16,1.12-.07,2.29-.68,3.5-.62,1.22-1.63,2.39-3.05,3.51-1.68,1.34-3.29,2.11-4.83,2.3-1.54.19-2.79-.36-3.77-1.66ZM802.91,150.11c1.23,1.54,2.49,2.38,3.79,2.5,1.3.12,2.5-.25,3.61-1.13,1.1-.87,1.74-1.96,1.92-3.26.18-1.3-.33-2.7-1.52-4.21-1.15-1.44-2.39-2.22-3.74-2.34-1.35-.12-2.56.25-3.64,1.11-1.06.85-1.68,1.92-1.85,3.24-.17,1.31.31,2.68,1.44,4.09Z"/><path class="cls-1" d="M816.76,139.27c-1.85-2.08-2.53-4.24-2.03-6.47.42-1.86,1.46-3.53,3.12-5.02,1.85-1.65,3.81-2.49,5.89-2.52,2.08-.04,3.91.84,5.5,2.62,1.29,1.45,2.04,2.82,2.26,4.11.22,1.29.03,2.61-.55,3.95-.59,1.34-1.47,2.54-2.64,3.58-1.89,1.68-3.86,2.53-5.92,2.55-2.06.03-3.93-.91-5.62-2.81ZM819.11,137.18c1.28,1.44,2.61,2.18,4,2.23,1.39.05,2.65-.44,3.79-1.45,1.13-1.01,1.76-2.21,1.87-3.59.11-1.39-.49-2.82-1.8-4.29-1.24-1.39-2.55-2.1-3.95-2.15-1.39-.04-2.65.44-3.78,1.44-1.14,1.02-1.77,2.21-1.89,3.6-.12,1.38.46,2.79,1.74,4.23Z"/><path class="cls-1" d="M845.36,120.42c-.25,1.37-.62,2.53-1.14,3.5-.51.97-1.2,1.88-2.05,2.72-1.41,1.39-2.78,2.17-4.1,2.34-1.32.17-2.43-.19-3.31-1.09-.52-.52-.84-1.14-.99-1.86-.14-.72-.11-1.43.1-2.15.21-.72.53-1.43.98-2.14.33-.52.89-1.24,1.67-2.18,1.59-1.91,2.68-3.39,3.27-4.45-.24-.26-.39-.42-.45-.49-.73-.74-1.45-1.06-2.16-.96-.96.14-1.99.75-3.09,1.82-1.03,1.01-1.63,1.9-1.83,2.68-.19.78-.03,1.67.48,2.66l-2.37,1.85c-.55-.95-.84-1.88-.86-2.78-.02-.9.27-1.9.86-2.97.59-1.08,1.44-2.16,2.54-3.25,1.1-1.08,2.09-1.85,2.99-2.31.9-.46,1.67-.68,2.31-.67.64,0,1.27.2,1.89.57.38.24.96.76,1.76,1.57l2.38,2.42c1.66,1.69,2.76,2.71,3.29,3.07.53.36,1.14.6,1.82.75l-2.27,2.24c-.6-.15-1.18-.45-1.74-.89ZM841.18,116.54c-.53,1.05-1.49,2.44-2.88,4.19-.79.99-1.3,1.73-1.54,2.23-.24.5-.33.98-.28,1.44.05.46.24.84.55,1.16.48.49,1.09.67,1.85.56.76-.11,1.56-.58,2.41-1.41.84-.83,1.43-1.71,1.79-2.66.35-.95.42-1.84.2-2.67-.17-.64-.65-1.36-1.44-2.16l-.66-.67Z"/><path class="cls-1" d="M853,115.18l-15.15-14.19,2.09-2.23,15.15,14.19-2.09,2.23Z"/><image width="67" height="66" transform="translate(826.27 48.66)" xlink:href="tagline4-1.png"/><path class="cls-1" d="M28.4,110.69l-16.55-10.91,10.25-15.56,1.95,1.29-8.24,12.5,5.12,3.38,7.13-10.82,1.95,1.29-7.13,10.82,7.52,4.96-2.01,3.05Z"/><path class="cls-1" d="M29.71,80.23l-2.05-1.9,2.3-2.49,2.05,1.9-2.3,2.49ZM42.19,91.8l-10.53-9.76,2.3-2.49,10.53,9.76-2.3,2.49Z"/><path class="cls-1" d="M48.44,85.04l-9.22-11.01,2.34-1.96,1.31,1.56c.11-2.15,1.23-4.12,3.36-5.9.92-.77,1.87-1.37,2.85-1.78.97-.41,1.82-.58,2.53-.52.71.06,1.36.3,1.96.7.38.27.94.83,1.66,1.69l5.67,6.77-2.6,2.18-5.61-6.7c-.64-.76-1.21-1.24-1.73-1.45-.52-.21-1.13-.21-1.83,0-.7.21-1.4.6-2.09,1.18-1.11.93-1.85,1.98-2.23,3.16-.38,1.18.02,2.47,1.2,3.88l5.04,6.01-2.6,2.18Z"/><path class="cls-1" d="M76.64,64.39l-.96-1.54c-.32,1.88-1.53,3.47-3.62,4.77-1.35.84-2.77,1.35-4.23,1.52-1.47.17-2.81-.03-4.04-.6-1.22-.57-2.22-1.48-3-2.73-.76-1.22-1.16-2.5-1.21-3.84-.05-1.34.32-2.63,1.13-3.86.8-1.23,1.9-2.28,3.3-3.15,1.02-.64,2.03-1.05,3.02-1.24.99-.19,1.89-.19,2.71,0l-3.76-6.04,2.86-1.78,10.47,16.83-2.67,1.66ZM63.76,63.97c.97,1.56,2.16,2.44,3.55,2.64,1.4.2,2.72-.08,3.97-.86,1.26-.78,2.1-1.82,2.52-3.1.42-1.29.16-2.69-.78-4.2-1.04-1.67-2.25-2.61-3.63-2.84-1.38-.22-2.73.07-4.04.89-1.28.8-2.12,1.84-2.51,3.12-.39,1.28-.08,2.73.92,4.35Z"/><path class="cls-1" d="M97.19,59.89l-1.23-1.96c.74-.16,1.36-.34,1.87-.55.69-.29,1.22-.61,1.56-.95.35-.34.59-.72.73-1.13.1-.31.19-1,.25-2.07,0-.15.02-.37.05-.67l-12.58-10.32,3.37-1.42,7.06,6.05c.91.76,1.78,1.6,2.63,2.5-.07-1.18-.07-2.37.02-3.56l.7-9.37,3.13-1.32-1.35,16.41c-.14,1.77-.3,3.02-.49,3.74-.24.97-.65,1.78-1.23,2.43-.57.65-1.36,1.18-2.35,1.6-.6.25-1.31.45-2.13.57Z"/><path class="cls-1" d="M110.38,40.7c-.82-2.53-.45-4.72,1.11-6.57,1.31-1.54,3.14-2.7,5.49-3.46,2.62-.85,4.95-.93,7.01-.24,2.06.69,3.44,2.12,4.15,4.29.57,1.76.65,3.26.25,4.5s-1.22,2.38-2.44,3.39c-1.22,1.01-2.66,1.79-4.32,2.33-2.66.87-5.02.95-7.06.26s-3.44-2.19-4.19-4.5ZM113.7,39.63c.57,1.75,1.53,2.88,2.87,3.41,1.34.52,2.82.52,4.44,0,1.6-.52,2.79-1.39,3.57-2.61.78-1.22.88-2.73.29-4.52-.55-1.69-1.5-2.79-2.85-3.32-1.35-.52-2.82-.53-4.41,0-1.61.52-2.81,1.39-3.59,2.6-.78,1.21-.89,2.69-.32,4.44Z"/><path class="cls-1" d="M147.85,37.45l-.49-2.05c-1.14,1.94-3.01,3.22-5.61,3.84-1.15.27-2.26.37-3.33.29-1.07-.08-1.9-.3-2.5-.67-.6-.36-1.07-.87-1.43-1.51-.25-.43-.49-1.15-.73-2.16l-2.06-8.66,3.3-.78,1.84,7.75c.29,1.24.56,2.05.79,2.45.36.57.91.96,1.67,1.15.76.2,1.63.17,2.62-.06.99-.24,1.87-.64,2.66-1.21.78-.57,1.28-1.21,1.49-1.92.21-.71.18-1.67-.11-2.86l-1.78-7.49,3.3-.78,3.32,13.97-2.95.7Z"/><path class="cls-1" d="M156.79,35.81l-1.98-14.22,3.02-.42.3,2.16c.63-1.12,1.25-1.88,1.86-2.29.61-.41,1.3-.67,2.09-.78,1.13-.16,2.32-.06,3.56.3l-.85,2.4c-.87-.23-1.71-.29-2.54-.18-.73.1-1.37.35-1.91.75-.54.4-.9.9-1.07,1.49-.25.91-.31,1.87-.17,2.89l1.03,7.44-3.36.47Z"/><path class="cls-1" d="M180.72,28.83l3.33-.55c.24.95.8,1.67,1.69,2.13.89.47,2.1.66,3.64.58,1.56-.08,2.7-.37,3.43-.86.73-.49,1.08-1.05,1.05-1.66-.03-.55-.38-.96-1.06-1.24-.48-.19-1.64-.41-3.5-.64-2.51-.32-4.25-.62-5.23-.9-.98-.28-1.73-.7-2.25-1.25-.53-.55-.81-1.18-.84-1.89-.03-.64.14-1.24.52-1.81.38-.57.91-1.05,1.59-1.44.51-.31,1.22-.58,2.12-.82.9-.24,1.87-.39,2.91-.44,1.57-.08,2.95,0,4.15.27s2.1.66,2.69,1.18c.59.52,1.02,1.25,1.28,2.16l-3.29.5c-.19-.73-.65-1.28-1.4-1.66-.74-.38-1.77-.53-3.09-.46-1.56.08-2.66.32-3.3.73-.65.4-.96.85-.93,1.35.02.32.17.59.46.83.29.25.73.44,1.33.58.34.07,1.35.23,3.02.46,2.42.33,4.11.62,5.07.87.96.24,1.73.63,2.3,1.16.57.53.87,1.21.92,2.04.04.81-.25,1.59-.87,2.34-.62.75-1.54,1.35-2.76,1.81-1.22.46-2.62.73-4.18.81-2.6.13-4.6-.15-6-.85-1.4-.7-2.33-1.81-2.79-3.31Z"/><path class="cls-1" d="M201.27,24.94c-.02-2.66.99-4.64,3.04-5.93,1.71-1.08,3.8-1.63,6.28-1.65,2.75-.02,5,.61,6.76,1.89,1.76,1.28,2.64,3.06,2.66,5.34.01,1.85-.36,3.3-1.12,4.37s-1.88,1.9-3.35,2.49c-1.47.6-3.08.9-4.82.92-2.8.02-5.07-.6-6.81-1.88s-2.62-3.12-2.64-5.55ZM204.75,24.91c.02,1.84.58,3.21,1.71,4.12,1.13.91,2.54,1.35,4.23,1.34,1.68-.01,3.08-.48,4.19-1.41,1.11-.93,1.66-2.33,1.64-4.22-.01-1.78-.59-3.12-1.72-4.02-1.13-.91-2.53-1.35-4.2-1.34-1.69.01-3.1.48-4.21,1.4-1.11.92-1.66,2.3-1.64,4.14Z"/><path class="cls-1" d="M238.31,27.26l3.32.42c-.42,1.64-1.4,2.89-2.93,3.78-1.53.88-3.39,1.29-5.57,1.21-2.74-.09-4.91-.81-6.53-2.15-1.62-1.34-2.39-3.21-2.31-5.61.05-1.55.46-2.89,1.21-4.03.76-1.14,1.87-1.97,3.36-2.5,1.48-.53,3.08-.77,4.8-.71,2.17.08,3.93.53,5.29,1.36s2.2,1.99,2.54,3.45l-3.31.25c-.28-.97-.81-1.72-1.59-2.23-.78-.51-1.74-.79-2.87-.83-1.71-.06-3.11.33-4.21,1.17-1.1.84-1.68,2.21-1.74,4.11-.07,1.93.4,3.35,1.4,4.26,1,.91,2.33,1.39,3.98,1.45,1.33.05,2.45-.21,3.36-.76.91-.56,1.51-1.44,1.79-2.64Z"/><path class="cls-1" d="M258.79,28.7l3.3.58c-.5,1.61-1.53,2.83-3.1,3.63-1.57.81-3.45,1.12-5.62.95-2.73-.22-4.87-1.04-6.42-2.46-1.56-1.41-2.23-3.32-2.04-5.71.12-1.55.59-2.87,1.4-3.97.81-1.1,1.96-1.88,3.47-2.34,1.5-.46,3.12-.62,4.83-.48,2.17.18,3.9.71,5.22,1.61,1.31.9,2.1,2.09,2.38,3.56l-3.32.1c-.23-.99-.73-1.75-1.49-2.3-.76-.55-1.7-.87-2.82-.96-1.7-.14-3.12.19-4.26.98-1.14.79-1.78,2.13-1.93,4.03-.16,1.92.24,3.36,1.2,4.31.96.96,2.26,1.5,3.91,1.64,1.33.11,2.46-.09,3.39-.61.94-.51,1.57-1.37,1.91-2.56Z"/><path class="cls-1" d="M279.72,32.19l3.41.85c-.77,1.37-1.96,2.33-3.57,2.9-1.6.57-3.55.67-5.85.31-2.89-.46-5.08-1.46-6.57-3-1.49-1.55-2.06-3.47-1.69-5.78.38-2.39,1.52-4.1,3.44-5.15,1.92-1.05,4.24-1.36,6.97-.93,2.64.42,4.7,1.4,6.17,2.96,1.47,1.55,2.02,3.5,1.65,5.84-.02.14-.06.36-.12.64l-14.74-2.32c-.12,1.58.31,2.87,1.28,3.87s2.29,1.63,3.94,1.89c1.23.19,2.31.13,3.25-.2.94-.33,1.75-.96,2.41-1.89ZM269.33,26.57l11.03,1.74c.04-1.22-.24-2.18-.84-2.88-.92-1.09-2.23-1.78-3.93-2.04-1.54-.24-2.89-.08-4.05.5-1.17.58-1.9,1.47-2.21,2.69Z"/><path class="cls-1" d="M287.2,38.59l3.83-13.84,2.94.82-.58,2.1c1.02-.77,1.89-1.23,2.62-1.37.72-.14,1.46-.1,2.23.11,1.1.3,2.15.87,3.15,1.69l-1.73,1.86c-.71-.56-1.46-.95-2.26-1.17-.71-.2-1.4-.22-2.05-.07-.65.15-1.18.47-1.57.95-.59.73-1.03,1.59-1.3,2.59l-2.01,7.24-3.27-.9Z"/><path class="cls-1" d="M314.24,47.62l-2.88-1.26,7.94-18.16,3.11,1.36-2.83,6.48c1.83-.61,3.76-.46,5.8.42,1.13.49,2.12,1.12,2.99,1.89.87.77,1.49,1.59,1.88,2.46.39.88.59,1.81.59,2.8,0,.99-.2,1.97-.62,2.92-.99,2.25-2.53,3.66-4.62,4.21s-4.22.35-6.4-.6c-2.16-.95-3.58-2.34-4.24-4.17l-.72,1.65ZM317.12,40.92c-.69,1.58-.89,2.85-.6,3.81.48,1.58,1.55,2.73,3.22,3.46,1.36.59,2.72.68,4.08.27,1.36-.41,2.41-1.46,3.14-3.13.75-1.72.83-3.19.24-4.43s-1.56-2.14-2.91-2.73c-1.36-.59-2.72-.68-4.08-.27-1.36.41-2.39,1.42-3.09,3.02Z"/><path class="cls-1" d="M343.96,60.24c-1.47.07-2.79-.04-3.96-.32s-2.34-.74-3.51-1.38c-1.93-1.05-3.23-2.2-3.89-3.44-.67-1.24-.71-2.39-.14-3.44.34-.62.84-1.07,1.51-1.37.67-.3,1.41-.43,2.21-.39.8.04,1.64.19,2.52.47.64.21,1.58.58,2.82,1.13,2.51,1.11,4.42,1.83,5.71,2.16.17-.29.28-.47.32-.55.48-.87.53-1.64.16-2.3-.5-.9-1.5-1.76-2.99-2.58-1.4-.76-2.53-1.15-3.39-1.17-.86-.01-1.69.34-2.5,1.06l-2.75-1.88c.75-.75,1.58-1.23,2.49-1.45.91-.22,2.01-.16,3.32.17,1.31.33,2.72.91,4.23,1.73,1.5.82,2.65,1.61,3.45,2.38.8.77,1.31,1.46,1.54,2.08.23.62.27,1.28.13,1.96-.1.42-.41,1.1-.93,2.05l-1.56,2.85c-1.08,1.99-1.71,3.28-1.87,3.87-.16.59-.19,1.24-.07,1.92l-3.11-1.7c-.07-.61.02-1.24.25-1.88ZM346.32,55.34c-1.25-.27-3.02-.89-5.3-1.85-1.29-.54-2.24-.87-2.83-.99-.59-.12-1.11-.1-1.55.05-.44.15-.76.42-.97.79-.31.57-.27,1.21.12,1.92.39.71,1.17,1.38,2.32,2.01,1.15.63,2.26,1,3.35,1.13,1.09.13,2.01,0,2.77-.4.58-.31,1.13-.93,1.65-1.87l.43-.78Z"/><path class="cls-1" d="M351.11,66.56l7.7-12.12,2.58,1.64-1.17,1.84c1.2-.44,2.17-.62,2.9-.54.73.08,1.43.33,2.1.76.96.61,1.8,1.46,2.52,2.53l-2.2,1.28c-.51-.74-1.12-1.33-1.82-1.78-.62-.4-1.27-.62-1.94-.67s-1.26.1-1.78.45c-.78.53-1.45,1.23-2,2.09l-4.03,6.34-2.86-1.82Z"/><image width="64" height="64" transform="translate(360.97 49.95)" xlink:href="tagline4-2.png"/></svg>